<?xml version="1.0" encoding="UTF-8" standalone="no"?>
<!DOCTYPE svg PUBLIC "-//W3C//DTD SVG 1.1//EN"
 "http://www.w3.org/Graphics/SVG/1.1/DTD/svg11.dtd">
<!-- Generated by graphviz version 2.40.1 (20161225.0304)
 -->
<!-- Title: dependencies Pages: 1 -->
<svg width="504pt" height="211pt"
 viewBox="0.00 0.00 504.00 211.00" xmlns="http://www.w3.org/2000/svg" xmlns:xlink="http://www.w3.org/1999/xlink">
<g id="graph0" class="graph" transform="scale(1 1) rotate(0) translate(4 207)">
<title>dependencies</title>
<polygon fill="#ffffff" stroke="transparent" points="-4,4 -4,-207 500,-207 500,4 -4,4"/>
<text text-anchor="start" x="227.0091" y="-42.4" font-family="sans-serif" font-weight="bold" font-size="14.00" fill="#000000">Legend</text>
<polygon fill="#ffffb3" stroke="transparent" points="14,-10 14,-30 34,-30 34,-10 14,-10"/>
<text text-anchor="start" x="37.629" y="-15.4" font-family="sans-serif" font-size="14.00" fill="#000000"> &#160;Declarations</text>
<polygon fill="#8dd3c7" stroke="transparent" points="127,-10 127,-30 147,-30 147,-10 127,-10"/>
<text text-anchor="start" x="150.7251" y="-15.4" font-family="sans-serif" font-size="14.00" fill="#000000"> &#160;Module</text>
<polygon fill="#80b1d3" stroke="transparent" points="213,-10 213,-30 233,-30 233,-10 213,-10"/>
<text text-anchor="start" x="236.7812" y="-15.4" font-family="sans-serif" font-size="14.00" fill="#000000"> &#160;Bootstrap</text>
<polygon fill="#fdb462" stroke="transparent" points="310,-10 310,-30 330,-30 330,-10 310,-10"/>
<text text-anchor="start" x="333.6732" y="-15.4" font-family="sans-serif" font-size="14.00" fill="#000000"> &#160;Providers</text>
<polygon fill="#fb8072" stroke="transparent" points="406,-10 406,-30 426,-30 426,-10 406,-10"/>
<text text-anchor="start" x="429.7258" y="-15.4" font-family="sans-serif" font-size="14.00" fill="#000000"> &#160;Exports</text>
<g id="clust1" class="cluster">
<title>cluster_ExampleModule</title>
<polygon fill="none" stroke="#000000" stroke-dasharray="1,5" points="136,-70 136,-195 360,-195 360,-70 136,-70"/>
</g>
<g id="clust3" class="cluster">
<title>cluster_ExampleModule_imports</title>
<polygon fill="none" stroke="#000000" points="144,-78 144,-130 352,-130 352,-78 144,-78"/>
</g>
<!-- AuthModule -->
<g id="node1" class="node">
<title>AuthModule</title>
<polygon fill="#8dd3c7" stroke="#000000" points="343.5482,-122 340.5482,-126 319.5482,-126 316.5482,-122 256.4518,-122 256.4518,-86 343.5482,-86 343.5482,-122"/>
<text text-anchor="middle" x="300" y="-99.8" font-family="Times,serif" font-size="14.00" fill="#000000">AuthModule</text>
</g>
<!-- ExampleModule -->
<g id="node3" class="node">
<title>ExampleModule</title>
<polygon fill="#8dd3c7" stroke="#000000" points="302.8132,-187 299.8132,-191 278.8132,-191 275.8132,-187 193.1868,-187 193.1868,-151 302.8132,-151 302.8132,-187"/>
<text text-anchor="middle" x="248" y="-164.8" font-family="Times,serif" font-size="14.00" fill="#000000">ExampleModule</text>
</g>
<!-- AuthModule&#45;&gt;ExampleModule -->
<g id="edge1" class="edge">
<title>AuthModule&#45;&gt;ExampleModule</title>
<path fill="none" stroke="#000000" d="M279.4415,-122.1061C279.4415,-122.1061 279.4415,-140.991 279.4415,-140.991"/>
<polygon fill="#000000" stroke="#000000" points="275.9415,-140.9909 279.4415,-150.991 282.9415,-140.991 275.9415,-140.9909"/>
</g>
<!-- UserModule -->
<g id="node2" class="node">
<title>UserModule</title>
<polygon fill="#8dd3c7" stroke="#000000" points="237.9762,-122 234.9762,-126 213.9762,-126 210.9762,-122 152.0238,-122 152.0238,-86 237.9762,-86 237.9762,-122"/>
<text text-anchor="middle" x="195" y="-99.8" font-family="Times,serif" font-size="14.00" fill="#000000">UserModule</text>
</g>
<!-- UserModule&#45;&gt;ExampleModule -->
<g id="edge2" class="edge">
<title>UserModule&#45;&gt;ExampleModule</title>
<path fill="none" stroke="#000000" d="M215.6659,-122.1061C215.6659,-122.1061 215.6659,-140.991 215.6659,-140.991"/>
<polygon fill="#000000" stroke="#000000" points="212.1659,-140.9909 215.6659,-150.991 219.1659,-140.991 212.1659,-140.9909"/>
</g>
</g>
</svg>
