<?xml version="1.0" encoding="UTF-8" standalone="no"?>
<!DOCTYPE svg PUBLIC "-//W3C//DTD SVG 1.1//EN"
 "http://www.w3.org/Graphics/SVG/1.1/DTD/svg11.dtd">
<!-- Generated by graphviz version 2.40.1 (20161225.0304)
 -->
<!-- Title: dependencies Pages: 1 -->
<svg width="544pt" height="211pt"
 viewBox="0.00 0.00 544.00 211.00" xmlns="http://www.w3.org/2000/svg" xmlns:xlink="http://www.w3.org/1999/xlink">
<g id="graph0" class="graph" transform="scale(1 1) rotate(0) translate(4 207)">
<title>dependencies</title>
<polygon fill="#ffffff" stroke="transparent" points="-4,4 -4,-207 540,-207 540,4 -4,4"/>
<text text-anchor="start" x="247.0091" y="-42.4" font-family="sans-serif" font-weight="bold" font-size="14.00" fill="#000000">Legend</text>
<polygon fill="#ffffb3" stroke="transparent" points="34,-10 34,-30 54,-30 54,-10 34,-10"/>
<text text-anchor="start" x="57.629" y="-15.4" font-family="sans-serif" font-size="14.00" fill="#000000"> &#160;Declarations</text>
<polygon fill="#8dd3c7" stroke="transparent" points="147,-10 147,-30 167,-30 167,-10 147,-10"/>
<text text-anchor="start" x="170.7251" y="-15.4" font-family="sans-serif" font-size="14.00" fill="#000000"> &#160;Module</text>
<polygon fill="#80b1d3" stroke="transparent" points="233,-10 233,-30 253,-30 253,-10 233,-10"/>
<text text-anchor="start" x="256.7812" y="-15.4" font-family="sans-serif" font-size="14.00" fill="#000000"> &#160;Bootstrap</text>
<polygon fill="#fdb462" stroke="transparent" points="330,-10 330,-30 350,-30 350,-10 330,-10"/>
<text text-anchor="start" x="353.6732" y="-15.4" font-family="sans-serif" font-size="14.00" fill="#000000"> &#160;Providers</text>
<polygon fill="#fb8072" stroke="transparent" points="426,-10 426,-30 446,-30 446,-10 426,-10"/>
<text text-anchor="start" x="449.7258" y="-15.4" font-family="sans-serif" font-size="14.00" fill="#000000"> &#160;Exports</text>
<g id="clust1" class="cluster">
<title>cluster_AuthModule</title>
<polygon fill="none" stroke="#000000" stroke-dasharray="1,5" points="8,-70 8,-195 528,-195 528,-70 8,-70"/>
</g>
<g id="clust3" class="cluster">
<title>cluster_AuthModule_imports</title>
<polygon fill="none" stroke="#000000" points="158,-78 158,-130 520,-130 520,-78 158,-78"/>
</g>
<g id="clust6" class="cluster">
<title>cluster_AuthModule_providers</title>
<polygon fill="none" stroke="#000000" points="16,-78 16,-130 150,-130 150,-78 16,-78"/>
</g>
<!-- MailsModule -->
<g id="node1" class="node">
<title>MailsModule</title>
<polygon fill="#8dd3c7" stroke="#000000" points="511.9358,-122 508.9358,-126 487.9358,-126 484.9358,-122 420.0642,-122 420.0642,-86 511.9358,-86 511.9358,-122"/>
<text text-anchor="middle" x="466" y="-99.8" font-family="Times,serif" font-size="14.00" fill="#000000">MailsModule</text>
</g>
<!-- AuthModule -->
<g id="node4" class="node">
<title>AuthModule</title>
<polygon fill="#8dd3c7" stroke="#000000" points="315.5482,-187 312.5482,-191 291.5482,-191 288.5482,-187 228.4518,-187 228.4518,-151 315.5482,-151 315.5482,-187"/>
<text text-anchor="middle" x="272" y="-164.8" font-family="Times,serif" font-size="14.00" fill="#000000">AuthModule</text>
</g>
<!-- MailsModule&#45;&gt;AuthModule -->
<g id="edge1" class="edge">
<title>MailsModule&#45;&gt;AuthModule</title>
<path fill="none" stroke="#000000" d="M466,-122.1061C466,-141.3391 466,-169 466,-169 466,-169 326.0216,-169 326.0216,-169"/>
<polygon fill="#000000" stroke="#000000" points="326.0216,-165.5001 316.0216,-169 326.0216,-172.5001 326.0216,-165.5001"/>
</g>
<!-- ManagementModule -->
<g id="node2" class="node">
<title>ManagementModule</title>
<polygon fill="#8dd3c7" stroke="#000000" points="402.1345,-122 399.1345,-126 378.1345,-126 375.1345,-122 269.8655,-122 269.8655,-86 402.1345,-86 402.1345,-122"/>
<text text-anchor="middle" x="336" y="-99.8" font-family="Times,serif" font-size="14.00" fill="#000000">ManagementModule</text>
</g>
<!-- ManagementModule&#45;&gt;AuthModule -->
<g id="edge2" class="edge">
<title>ManagementModule&#45;&gt;AuthModule</title>
<path fill="none" stroke="#000000" d="M292.7283,-122.1061C292.7283,-122.1061 292.7283,-140.991 292.7283,-140.991"/>
<polygon fill="#000000" stroke="#000000" points="289.2283,-140.9909 292.7283,-150.991 296.2283,-140.991 289.2283,-140.9909"/>
</g>
<!-- UserModule -->
<g id="node3" class="node">
<title>UserModule</title>
<polygon fill="#8dd3c7" stroke="#000000" points="251.9762,-122 248.9762,-126 227.9762,-126 224.9762,-122 166.0238,-122 166.0238,-86 251.9762,-86 251.9762,-122"/>
<text text-anchor="middle" x="209" y="-99.8" font-family="Times,serif" font-size="14.00" fill="#000000">UserModule</text>
</g>
<!-- UserModule&#45;&gt;AuthModule -->
<g id="edge3" class="edge">
<title>UserModule&#45;&gt;AuthModule</title>
<path fill="none" stroke="#000000" d="M240.1073,-122.1061C240.1073,-122.1061 240.1073,-140.991 240.1073,-140.991"/>
<polygon fill="#000000" stroke="#000000" points="236.6074,-140.9909 240.1073,-150.991 243.6074,-140.991 236.6074,-140.9909"/>
</g>
<!-- AuthService -->
<g id="node5" class="node">
<title>AuthService</title>
<ellipse fill="#fdb462" stroke="#000000" cx="83" cy="-104" rx="59.1083" ry="18"/>
<text text-anchor="middle" x="83" y="-99.8" font-family="Times,serif" font-size="14.00" fill="#000000">AuthService</text>
</g>
<!-- AuthService&#45;&gt;AuthModule -->
<g id="edge4" class="edge">
<title>AuthService&#45;&gt;AuthModule</title>
<path fill="none" stroke="#000000" d="M83,-122.1061C83,-141.3391 83,-169 83,-169 83,-169 218.1646,-169 218.1646,-169"/>
<polygon fill="#000000" stroke="#000000" points="218.1646,-172.5001 228.1646,-169 218.1645,-165.5001 218.1646,-172.5001"/>
</g>
</g>
</svg>
