<?xml version="1.0" encoding="UTF-8" standalone="no"?>
<!DOCTYPE svg PUBLIC "-//W3C//DTD SVG 1.1//EN"
 "http://www.w3.org/Graphics/SVG/1.1/DTD/svg11.dtd">
<!-- Generated by graphviz version 2.40.1 (20161225.0304)
 -->
<!-- Title: dependencies Pages: 1 -->
<svg width="860pt" height="211pt"
 viewBox="0.00 0.00 860.00 211.00" xmlns="http://www.w3.org/2000/svg" xmlns:xlink="http://www.w3.org/1999/xlink">
<g id="graph0" class="graph" transform="scale(1 1) rotate(0) translate(4 207)">
<title>dependencies</title>
<polygon fill="#ffffff" stroke="transparent" points="-4,4 -4,-207 856,-207 856,4 -4,4"/>
<text text-anchor="start" x="405.0091" y="-42.4" font-family="sans-serif" font-weight="bold" font-size="14.00" fill="#000000">Legend</text>
<polygon fill="#ffffb3" stroke="transparent" points="192,-10 192,-30 212,-30 212,-10 192,-10"/>
<text text-anchor="start" x="215.629" y="-15.4" font-family="sans-serif" font-size="14.00" fill="#000000"> &#160;Declarations</text>
<polygon fill="#8dd3c7" stroke="transparent" points="305,-10 305,-30 325,-30 325,-10 305,-10"/>
<text text-anchor="start" x="328.7251" y="-15.4" font-family="sans-serif" font-size="14.00" fill="#000000"> &#160;Module</text>
<polygon fill="#80b1d3" stroke="transparent" points="391,-10 391,-30 411,-30 411,-10 391,-10"/>
<text text-anchor="start" x="414.7812" y="-15.4" font-family="sans-serif" font-size="14.00" fill="#000000"> &#160;Bootstrap</text>
<polygon fill="#fdb462" stroke="transparent" points="488,-10 488,-30 508,-30 508,-10 488,-10"/>
<text text-anchor="start" x="511.6732" y="-15.4" font-family="sans-serif" font-size="14.00" fill="#000000"> &#160;Providers</text>
<polygon fill="#fb8072" stroke="transparent" points="584,-10 584,-30 604,-30 604,-10 584,-10"/>
<text text-anchor="start" x="607.7258" y="-15.4" font-family="sans-serif" font-size="14.00" fill="#000000"> &#160;Exports</text>
<g id="clust1" class="cluster">
<title>cluster_AuthModule</title>
<polygon fill="none" stroke="#000000" stroke-dasharray="1,5" points="8,-70 8,-195 844,-195 844,-70 8,-70"/>
</g>
<g id="clust3" class="cluster">
<title>cluster_AuthModule_imports</title>
<polygon fill="none" stroke="#000000" points="307,-78 307,-130 836,-130 836,-78 307,-78"/>
</g>
<g id="clust6" class="cluster">
<title>cluster_AuthModule_providers</title>
<polygon fill="none" stroke="#000000" points="16,-78 16,-130 299,-130 299,-78 16,-78"/>
</g>
<!-- ClientModule -->
<g id="node1" class="node">
<title>ClientModule</title>
<polygon fill="#8dd3c7" stroke="#000000" points="827.7731,-122 824.7731,-126 803.7731,-126 800.7731,-122 734.2269,-122 734.2269,-86 827.7731,-86 827.7731,-122"/>
<text text-anchor="middle" x="781" y="-99.8" font-family="Times,serif" font-size="14.00" fill="#000000">ClientModule</text>
</g>
<!-- AuthModule -->
<g id="node5" class="node">
<title>AuthModule</title>
<polygon fill="#8dd3c7" stroke="#000000" points="478.5482,-187 475.5482,-191 454.5482,-191 451.5482,-187 391.4518,-187 391.4518,-151 478.5482,-151 478.5482,-187"/>
<text text-anchor="middle" x="435" y="-164.8" font-family="Times,serif" font-size="14.00" fill="#000000">AuthModule</text>
</g>
<!-- ClientModule&#45;&gt;AuthModule -->
<g id="edge1" class="edge">
<title>ClientModule&#45;&gt;AuthModule</title>
<path fill="none" stroke="#000000" d="M781,-122.2843C781,-143.3211 781,-175 781,-175 781,-175 488.8211,-175 488.8211,-175"/>
<polygon fill="#000000" stroke="#000000" points="488.8212,-171.5001 478.8211,-175 488.8211,-178.5001 488.8212,-171.5001"/>
</g>
<!-- MailsModule -->
<g id="node2" class="node">
<title>MailsModule</title>
<polygon fill="#8dd3c7" stroke="#000000" points="715.9358,-122 712.9358,-126 691.9358,-126 688.9358,-122 624.0642,-122 624.0642,-86 715.9358,-86 715.9358,-122"/>
<text text-anchor="middle" x="670" y="-99.8" font-family="Times,serif" font-size="14.00" fill="#000000">MailsModule</text>
</g>
<!-- MailsModule&#45;&gt;AuthModule -->
<g id="edge2" class="edge">
<title>MailsModule&#45;&gt;AuthModule</title>
<path fill="none" stroke="#000000" d="M670,-122.0225C670,-139.3734 670,-163 670,-163 670,-163 488.651,-163 488.651,-163"/>
<polygon fill="#000000" stroke="#000000" points="488.651,-159.5001 478.651,-163 488.6509,-166.5001 488.651,-159.5001"/>
</g>
<!-- PlatformAdministratorModule -->
<g id="node3" class="node">
<title>PlatformAdministratorModule</title>
<polygon fill="#8dd3c7" stroke="#000000" points="606.58,-122 603.58,-126 582.58,-126 579.58,-122 419.42,-122 419.42,-86 606.58,-86 606.58,-122"/>
<text text-anchor="middle" x="513" y="-99.8" font-family="Times,serif" font-size="14.00" fill="#000000">PlatformAdministratorModule</text>
</g>
<!-- PlatformAdministratorModule&#45;&gt;AuthModule -->
<g id="edge3" class="edge">
<title>PlatformAdministratorModule&#45;&gt;AuthModule</title>
<path fill="none" stroke="#000000" d="M449.1168,-122.1061C449.1168,-122.1061 449.1168,-140.991 449.1168,-140.991"/>
<polygon fill="#000000" stroke="#000000" points="445.6168,-140.9909 449.1168,-150.991 452.6168,-140.991 445.6168,-140.9909"/>
</g>
<!-- UserModule -->
<g id="node4" class="node">
<title>UserModule</title>
<polygon fill="#8dd3c7" stroke="#000000" points="400.9762,-122 397.9762,-126 376.9762,-126 373.9762,-122 315.0238,-122 315.0238,-86 400.9762,-86 400.9762,-122"/>
<text text-anchor="middle" x="358" y="-99.8" font-family="Times,serif" font-size="14.00" fill="#000000">UserModule</text>
</g>
<!-- UserModule&#45;&gt;AuthModule -->
<g id="edge4" class="edge">
<title>UserModule&#45;&gt;AuthModule</title>
<path fill="none" stroke="#000000" d="M396.1073,-122.1061C396.1073,-122.1061 396.1073,-140.991 396.1073,-140.991"/>
<polygon fill="#000000" stroke="#000000" points="392.6074,-140.9909 396.1073,-150.991 399.6074,-140.991 392.6074,-140.9909"/>
</g>
<!-- AuthService -->
<g id="node6" class="node">
<title>AuthService</title>
<ellipse fill="#fdb462" stroke="#000000" cx="232" cy="-104" rx="59.1083" ry="18"/>
<text text-anchor="middle" x="232" y="-99.8" font-family="Times,serif" font-size="14.00" fill="#000000">AuthService</text>
</g>
<!-- AuthService&#45;&gt;AuthModule -->
<g id="edge5" class="edge">
<title>AuthService&#45;&gt;AuthModule</title>
<path fill="none" stroke="#000000" d="M232,-122.0225C232,-139.3734 232,-163 232,-163 232,-163 381.4514,-163 381.4514,-163"/>
<polygon fill="#000000" stroke="#000000" points="381.4514,-166.5001 391.4514,-163 381.4514,-159.5001 381.4514,-166.5001"/>
</g>
<!-- LocalStrategy -->
<g id="node7" class="node">
<title>LocalStrategy</title>
<ellipse fill="#fdb462" stroke="#000000" cx="89" cy="-104" rx="65.4053" ry="18"/>
<text text-anchor="middle" x="89" y="-99.8" font-family="Times,serif" font-size="14.00" fill="#000000">LocalStrategy</text>
</g>
<!-- LocalStrategy&#45;&gt;AuthModule -->
<g id="edge6" class="edge">
<title>LocalStrategy&#45;&gt;AuthModule</title>
<path fill="none" stroke="#000000" d="M89,-122.2843C89,-143.3211 89,-175 89,-175 89,-175 381.1789,-175 381.1789,-175"/>
<polygon fill="#000000" stroke="#000000" points="381.1789,-178.5001 391.1789,-175 381.1788,-171.5001 381.1789,-178.5001"/>
</g>
</g>
</svg>
