<?xml version="1.0" encoding="UTF-8" standalone="no"?>
<!DOCTYPE svg PUBLIC "-//W3C//DTD SVG 1.1//EN"
 "http://www.w3.org/Graphics/SVG/1.1/DTD/svg11.dtd">
<!-- Generated by graphviz version 2.40.1 (20161225.0304)
 -->
<!-- Title: dependencies Pages: 1 -->
<svg width="1501pt" height="211pt"
 viewBox="0.00 0.00 1501.00 211.00" xmlns="http://www.w3.org/2000/svg" xmlns:xlink="http://www.w3.org/1999/xlink">
<g id="graph0" class="graph" transform="scale(1 1) rotate(0) translate(4 207)">
<title>dependencies</title>
<polygon fill="#ffffff" stroke="transparent" points="-4,4 -4,-207 1497,-207 1497,4 -4,4"/>
<text text-anchor="start" x="725.5091" y="-42.4" font-family="sans-serif" font-weight="bold" font-size="14.00" fill="#000000">Legend</text>
<polygon fill="#ffffb3" stroke="transparent" points="512.5,-10 512.5,-30 532.5,-30 532.5,-10 512.5,-10"/>
<text text-anchor="start" x="536.129" y="-15.4" font-family="sans-serif" font-size="14.00" fill="#000000"> &#160;Declarations</text>
<polygon fill="#8dd3c7" stroke="transparent" points="625.5,-10 625.5,-30 645.5,-30 645.5,-10 625.5,-10"/>
<text text-anchor="start" x="649.2251" y="-15.4" font-family="sans-serif" font-size="14.00" fill="#000000"> &#160;Module</text>
<polygon fill="#80b1d3" stroke="transparent" points="711.5,-10 711.5,-30 731.5,-30 731.5,-10 711.5,-10"/>
<text text-anchor="start" x="735.2812" y="-15.4" font-family="sans-serif" font-size="14.00" fill="#000000"> &#160;Bootstrap</text>
<polygon fill="#fdb462" stroke="transparent" points="808.5,-10 808.5,-30 828.5,-30 828.5,-10 808.5,-10"/>
<text text-anchor="start" x="832.1732" y="-15.4" font-family="sans-serif" font-size="14.00" fill="#000000"> &#160;Providers</text>
<polygon fill="#fb8072" stroke="transparent" points="904.5,-10 904.5,-30 924.5,-30 924.5,-10 904.5,-10"/>
<text text-anchor="start" x="928.2258" y="-15.4" font-family="sans-serif" font-size="14.00" fill="#000000"> &#160;Exports</text>
<g id="clust1" class="cluster">
<title>cluster_AppModule</title>
<polygon fill="none" stroke="#000000" stroke-dasharray="1,5" points="8,-70 8,-195 1485,-195 1485,-70 8,-70"/>
</g>
<g id="clust3" class="cluster">
<title>cluster_AppModule_imports</title>
<polygon fill="none" stroke="#000000" points="16,-78 16,-130 1477,-130 1477,-78 16,-78"/>
</g>
<!-- AuthModule -->
<g id="node1" class="node">
<title>AuthModule</title>
<polygon fill="#8dd3c7" stroke="#000000" points="1468.5482,-122 1465.5482,-126 1444.5482,-126 1441.5482,-122 1381.4518,-122 1381.4518,-86 1468.5482,-86 1468.5482,-122"/>
<text text-anchor="middle" x="1425" y="-99.8" font-family="Times,serif" font-size="14.00" fill="#000000">AuthModule</text>
</g>
<!-- AppModule -->
<g id="node12" class="node">
<title>AppModule</title>
<polygon fill="#8dd3c7" stroke="#000000" points="825.6571,-187 822.6571,-191 801.6571,-191 798.6571,-187 742.3429,-187 742.3429,-151 825.6571,-151 825.6571,-187"/>
<text text-anchor="middle" x="784" y="-164.8" font-family="Times,serif" font-size="14.00" fill="#000000">AppModule</text>
</g>
<!-- AuthModule&#45;&gt;AppModule -->
<g id="edge1" class="edge">
<title>AuthModule&#45;&gt;AppModule</title>
<path fill="none" stroke="#000000" d="M1425,-122.0908C1425,-145.1328 1425,-182 1425,-182 1425,-182 836.0578,-182 836.0578,-182"/>
<polygon fill="#000000" stroke="#000000" points="836.0578,-178.5001 826.0578,-182 836.0578,-185.5001 836.0578,-178.5001"/>
</g>
<!-- BankAccountModule -->
<g id="node2" class="node">
<title>BankAccountModule</title>
<polygon fill="#8dd3c7" stroke="#000000" points="1363.0282,-122 1360.0282,-126 1339.0282,-126 1336.0282,-122 1226.9718,-122 1226.9718,-86 1363.0282,-86 1363.0282,-122"/>
<text text-anchor="middle" x="1295" y="-99.8" font-family="Times,serif" font-size="14.00" fill="#000000">BankAccountModule</text>
</g>
<!-- BankAccountModule&#45;&gt;AppModule -->
<g id="edge2" class="edge">
<title>BankAccountModule&#45;&gt;AppModule</title>
<path fill="none" stroke="#000000" d="M1295,-122.2843C1295,-143.3211 1295,-175 1295,-175 1295,-175 835.8173,-175 835.8173,-175"/>
<polygon fill="#000000" stroke="#000000" points="835.8173,-171.5001 825.8173,-175 835.8172,-178.5001 835.8173,-171.5001"/>
</g>
<!-- ClientModule -->
<g id="node3" class="node">
<title>ClientModule</title>
<polygon fill="#8dd3c7" stroke="#000000" points="1208.7731,-122 1205.7731,-126 1184.7731,-126 1181.7731,-122 1115.2269,-122 1115.2269,-86 1208.7731,-86 1208.7731,-122"/>
<text text-anchor="middle" x="1162" y="-99.8" font-family="Times,serif" font-size="14.00" fill="#000000">ClientModule</text>
</g>
<!-- ClientModule&#45;&gt;AppModule -->
<g id="edge3" class="edge">
<title>ClientModule&#45;&gt;AppModule</title>
<path fill="none" stroke="#000000" d="M1162,-122.1061C1162,-141.3391 1162,-169 1162,-169 1162,-169 835.8969,-169 835.8969,-169"/>
<polygon fill="#000000" stroke="#000000" points="835.8969,-165.5001 825.8969,-169 835.8968,-172.5001 835.8969,-165.5001"/>
</g>
<!-- DatabaseModule -->
<g id="node4" class="node">
<title>DatabaseModule</title>
<polygon fill="#8dd3c7" stroke="#000000" points="1097.3501,-122 1094.3501,-126 1073.3501,-126 1070.3501,-122 986.6499,-122 986.6499,-86 1097.3501,-86 1097.3501,-122"/>
<text text-anchor="middle" x="1042" y="-99.8" font-family="Times,serif" font-size="14.00" fill="#000000">DatabaseModule</text>
</g>
<!-- DatabaseModule&#45;&gt;AppModule -->
<g id="edge4" class="edge">
<title>DatabaseModule&#45;&gt;AppModule</title>
<path fill="none" stroke="#000000" d="M1042,-122.0225C1042,-139.3734 1042,-163 1042,-163 1042,-163 835.7389,-163 835.7389,-163"/>
<polygon fill="#000000" stroke="#000000" points="835.7389,-159.5001 825.7389,-163 835.7389,-166.5001 835.7389,-159.5001"/>
</g>
<!-- ExampleModule -->
<g id="node5" class="node">
<title>ExampleModule</title>
<polygon fill="#8dd3c7" stroke="#000000" points="968.8132,-122 965.8132,-126 944.8132,-126 941.8132,-122 859.1868,-122 859.1868,-86 968.8132,-86 968.8132,-122"/>
<text text-anchor="middle" x="914" y="-99.8" font-family="Times,serif" font-size="14.00" fill="#000000">ExampleModule</text>
</g>
<!-- ExampleModule&#45;&gt;AppModule -->
<g id="edge5" class="edge">
<title>ExampleModule&#45;&gt;AppModule</title>
<path fill="none" stroke="#000000" d="M914,-122.2396C914,-137.5706 914,-157 914,-157 914,-157 835.8484,-157 835.8484,-157"/>
<polygon fill="#000000" stroke="#000000" points="835.8484,-153.5001 825.8484,-157 835.8484,-160.5001 835.8484,-153.5001"/>
</g>
<!-- LanguageModule -->
<g id="node6" class="node">
<title>LanguageModule</title>
<polygon fill="#8dd3c7" stroke="#000000" points="841.2465,-122 838.2465,-126 817.2465,-126 814.2465,-122 726.7535,-122 726.7535,-86 841.2465,-86 841.2465,-122"/>
<text text-anchor="middle" x="784" y="-99.8" font-family="Times,serif" font-size="14.00" fill="#000000">LanguageModule</text>
</g>
<!-- LanguageModule&#45;&gt;AppModule -->
<g id="edge6" class="edge">
<title>LanguageModule&#45;&gt;AppModule</title>
<path fill="none" stroke="#000000" d="M784,-122.1061C784,-122.1061 784,-140.991 784,-140.991"/>
<polygon fill="#000000" stroke="#000000" points="780.5001,-140.9909 784,-150.991 787.5001,-140.991 780.5001,-140.9909"/>
</g>
<!-- MailsModule -->
<g id="node7" class="node">
<title>MailsModule</title>
<polygon fill="#8dd3c7" stroke="#000000" points="708.9358,-122 705.9358,-126 684.9358,-126 681.9358,-122 617.0642,-122 617.0642,-86 708.9358,-86 708.9358,-122"/>
<text text-anchor="middle" x="663" y="-99.8" font-family="Times,serif" font-size="14.00" fill="#000000">MailsModule</text>
</g>
<!-- MailsModule&#45;&gt;AppModule -->
<g id="edge7" class="edge">
<title>MailsModule&#45;&gt;AppModule</title>
<path fill="none" stroke="#000000" d="M663,-122.2396C663,-137.5706 663,-157 663,-157 663,-157 732.0197,-157 732.0197,-157"/>
<polygon fill="#000000" stroke="#000000" points="732.0197,-160.5001 742.0197,-157 732.0196,-153.5001 732.0197,-160.5001"/>
</g>
<!-- PlatformAdministratorModule -->
<g id="node8" class="node">
<title>PlatformAdministratorModule</title>
<polygon fill="#8dd3c7" stroke="#000000" points="599.58,-122 596.58,-126 575.58,-126 572.58,-122 412.42,-122 412.42,-86 599.58,-86 599.58,-122"/>
<text text-anchor="middle" x="506" y="-99.8" font-family="Times,serif" font-size="14.00" fill="#000000">PlatformAdministratorModule</text>
</g>
<!-- PlatformAdministratorModule&#45;&gt;AppModule -->
<g id="edge8" class="edge">
<title>PlatformAdministratorModule&#45;&gt;AppModule</title>
<path fill="none" stroke="#000000" d="M506,-122.0225C506,-139.3734 506,-163 506,-163 506,-163 732.0796,-163 732.0796,-163"/>
<polygon fill="#000000" stroke="#000000" points="732.0796,-166.5001 742.0796,-163 732.0796,-159.5001 732.0796,-166.5001"/>
</g>
<!-- SuscriptionModule -->
<g id="node9" class="node">
<title>SuscriptionModule</title>
<polygon fill="#8dd3c7" stroke="#000000" points="394.8244,-122 391.8244,-126 370.8244,-126 367.8244,-122 271.1756,-122 271.1756,-86 394.8244,-86 394.8244,-122"/>
<text text-anchor="middle" x="333" y="-99.8" font-family="Times,serif" font-size="14.00" fill="#000000">SuscriptionModule</text>
</g>
<!-- SuscriptionModule&#45;&gt;AppModule -->
<g id="edge9" class="edge">
<title>SuscriptionModule&#45;&gt;AppModule</title>
<path fill="none" stroke="#000000" d="M333,-122.1061C333,-141.3391 333,-169 333,-169 333,-169 731.976,-169 731.976,-169"/>
<polygon fill="#000000" stroke="#000000" points="731.976,-172.5001 741.976,-169 731.976,-165.5001 731.976,-172.5001"/>
</g>
<!-- TransactionModule -->
<g id="node10" class="node">
<title>TransactionModule</title>
<polygon fill="#8dd3c7" stroke="#000000" points="253.6331,-122 250.6331,-126 229.6331,-126 226.6331,-122 128.3669,-122 128.3669,-86 253.6331,-86 253.6331,-122"/>
<text text-anchor="middle" x="191" y="-99.8" font-family="Times,serif" font-size="14.00" fill="#000000">TransactionModule</text>
</g>
<!-- TransactionModule&#45;&gt;AppModule -->
<g id="edge10" class="edge">
<title>TransactionModule&#45;&gt;AppModule</title>
<path fill="none" stroke="#000000" d="M191,-122.2843C191,-143.3211 191,-175 191,-175 191,-175 732.3014,-175 732.3014,-175"/>
<polygon fill="#000000" stroke="#000000" points="732.3014,-178.5001 742.3014,-175 732.3014,-171.5001 732.3014,-178.5001"/>
</g>
<!-- UserModule -->
<g id="node11" class="node">
<title>UserModule</title>
<polygon fill="#8dd3c7" stroke="#000000" points="109.9762,-122 106.9762,-126 85.9762,-126 82.9762,-122 24.0238,-122 24.0238,-86 109.9762,-86 109.9762,-122"/>
<text text-anchor="middle" x="67" y="-99.8" font-family="Times,serif" font-size="14.00" fill="#000000">UserModule</text>
</g>
<!-- UserModule&#45;&gt;AppModule -->
<g id="edge11" class="edge">
<title>UserModule&#45;&gt;AppModule</title>
<path fill="none" stroke="#000000" d="M67,-122.0908C67,-145.1328 67,-182 67,-182 67,-182 732.0889,-182 732.0889,-182"/>
<polygon fill="#000000" stroke="#000000" points="732.089,-185.5001 742.0889,-182 732.0889,-178.5001 732.089,-185.5001"/>
</g>
</g>
</svg>
