<?xml version="1.0" encoding="UTF-8" standalone="no"?>
<!DOCTYPE svg PUBLIC "-//W3C//DTD SVG 1.1//EN"
 "http://www.w3.org/Graphics/SVG/1.1/DTD/svg11.dtd">
<!-- Generated by graphviz version 2.40.1 (20161225.0304)
 -->
<!-- Title: dependencies Pages: 1 -->
<svg width="504pt" height="284pt"
 viewBox="0.00 0.00 504.00 284.00" xmlns="http://www.w3.org/2000/svg" xmlns:xlink="http://www.w3.org/1999/xlink">
<g id="graph0" class="graph" transform="scale(1 1) rotate(0) translate(4 280)">
<title>dependencies</title>
<polygon fill="#ffffff" stroke="transparent" points="-4,4 -4,-280 500,-280 500,4 -4,4"/>
<text text-anchor="start" x="227.0091" y="-42.4" font-family="sans-serif" font-weight="bold" font-size="14.00" fill="#000000">Legend</text>
<polygon fill="#ffffb3" stroke="transparent" points="14,-10 14,-30 34,-30 34,-10 14,-10"/>
<text text-anchor="start" x="37.629" y="-15.4" font-family="sans-serif" font-size="14.00" fill="#000000"> &#160;Declarations</text>
<polygon fill="#8dd3c7" stroke="transparent" points="127,-10 127,-30 147,-30 147,-10 127,-10"/>
<text text-anchor="start" x="150.7251" y="-15.4" font-family="sans-serif" font-size="14.00" fill="#000000"> &#160;Module</text>
<polygon fill="#80b1d3" stroke="transparent" points="213,-10 213,-30 233,-30 233,-10 213,-10"/>
<text text-anchor="start" x="236.7812" y="-15.4" font-family="sans-serif" font-size="14.00" fill="#000000"> &#160;Bootstrap</text>
<polygon fill="#fdb462" stroke="transparent" points="310,-10 310,-30 330,-30 330,-10 310,-10"/>
<text text-anchor="start" x="333.6732" y="-15.4" font-family="sans-serif" font-size="14.00" fill="#000000"> &#160;Providers</text>
<polygon fill="#fb8072" stroke="transparent" points="406,-10 406,-30 426,-30 426,-10 406,-10"/>
<text text-anchor="start" x="429.7258" y="-15.4" font-family="sans-serif" font-size="14.00" fill="#000000"> &#160;Exports</text>
<g id="clust1" class="cluster">
<title>cluster_PointsConversionSeederModule</title>
<polygon fill="none" stroke="#000000" stroke-dasharray="1,5" points="97,-70 97,-268 399,-268 399,-70 97,-70"/>
</g>
<g id="clust4" class="cluster">
<title>cluster_PointsConversionSeederModule_exports</title>
<polygon fill="none" stroke="#000000" points="140,-208 140,-260 356,-260 356,-208 140,-208"/>
</g>
<g id="clust6" class="cluster">
<title>cluster_PointsConversionSeederModule_providers</title>
<polygon fill="none" stroke="#000000" points="105,-78 105,-130 391,-130 391,-78 105,-78"/>
</g>
<!-- PointsConversionSeederService  -->
<g id="node1" class="node">
<title>PointsConversionSeederService </title>
<polygon fill="#fb8072" stroke="#000000" points="347.62,-252 148.38,-252 148.38,-216 347.62,-216 347.62,-252"/>
<text text-anchor="middle" x="248" y="-229.8" font-family="Times,serif" font-size="14.00" fill="#000000">PointsConversionSeederService </text>
</g>
<!-- PointsConversionSeederModule -->
<g id="node2" class="node">
<title>PointsConversionSeederModule</title>
<polygon fill="#8dd3c7" stroke="#000000" points="346.6923,-187 343.6923,-191 322.6923,-191 319.6923,-187 149.3077,-187 149.3077,-151 346.6923,-151 346.6923,-187"/>
<text text-anchor="middle" x="248" y="-164.8" font-family="Times,serif" font-size="14.00" fill="#000000">PointsConversionSeederModule</text>
</g>
<!-- PointsConversionSeederModule&#45;&gt;PointsConversionSeederService  -->
<g id="edge1" class="edge">
<title>PointsConversionSeederModule&#45;&gt;PointsConversionSeederService </title>
<path fill="none" stroke="#000000" stroke-dasharray="5,2" d="M248,-187.1061C248,-187.1061 248,-205.991 248,-205.991"/>
<polygon fill="#000000" stroke="#000000" points="244.5001,-205.9909 248,-215.991 251.5001,-205.991 244.5001,-205.9909"/>
</g>
<!-- PointsConversionSeederService -->
<g id="node3" class="node">
<title>PointsConversionSeederService</title>
<ellipse fill="#fdb462" stroke="#000000" cx="248" cy="-104" rx="134.8702" ry="18"/>
<text text-anchor="middle" x="248" y="-99.8" font-family="Times,serif" font-size="14.00" fill="#000000">PointsConversionSeederService</text>
</g>
<!-- PointsConversionSeederService&#45;&gt;PointsConversionSeederModule -->
<g id="edge2" class="edge">
<title>PointsConversionSeederService&#45;&gt;PointsConversionSeederModule</title>
<path fill="none" stroke="#000000" d="M248,-122.1061C248,-122.1061 248,-140.991 248,-140.991"/>
<polygon fill="#000000" stroke="#000000" points="244.5001,-140.9909 248,-150.991 251.5001,-140.991 244.5001,-140.9909"/>
</g>
</g>
</svg>
