<?xml version="1.0" encoding="UTF-8" standalone="no"?>
<!DOCTYPE svg PUBLIC "-//W3C//DTD SVG 1.1//EN"
 "http://www.w3.org/Graphics/SVG/1.1/DTD/svg11.dtd">
<!-- Generated by graphviz version 2.40.1 (20161225.0304)
 -->
<!-- Title: dependencies Pages: 1 -->
<svg width="1008pt" height="284pt"
 viewBox="0.00 0.00 1008.00 284.00" xmlns="http://www.w3.org/2000/svg" xmlns:xlink="http://www.w3.org/1999/xlink">
<g id="graph0" class="graph" transform="scale(1 1) rotate(0) translate(4 280)">
<title>dependencies</title>
<polygon fill="#ffffff" stroke="transparent" points="-4,4 -4,-280 1004,-280 1004,4 -4,4"/>
<text text-anchor="start" x="479.0091" y="-42.4" font-family="sans-serif" font-weight="bold" font-size="14.00" fill="#000000">Legend</text>
<polygon fill="#ffffb3" stroke="transparent" points="266,-10 266,-30 286,-30 286,-10 266,-10"/>
<text text-anchor="start" x="289.629" y="-15.4" font-family="sans-serif" font-size="14.00" fill="#000000"> &#160;Declarations</text>
<polygon fill="#8dd3c7" stroke="transparent" points="379,-10 379,-30 399,-30 399,-10 379,-10"/>
<text text-anchor="start" x="402.7251" y="-15.4" font-family="sans-serif" font-size="14.00" fill="#000000"> &#160;Module</text>
<polygon fill="#80b1d3" stroke="transparent" points="465,-10 465,-30 485,-30 485,-10 465,-10"/>
<text text-anchor="start" x="488.7812" y="-15.4" font-family="sans-serif" font-size="14.00" fill="#000000"> &#160;Bootstrap</text>
<polygon fill="#fdb462" stroke="transparent" points="562,-10 562,-30 582,-30 582,-10 562,-10"/>
<text text-anchor="start" x="585.6732" y="-15.4" font-family="sans-serif" font-size="14.00" fill="#000000"> &#160;Providers</text>
<polygon fill="#fb8072" stroke="transparent" points="658,-10 658,-30 678,-30 678,-10 658,-10"/>
<text text-anchor="start" x="681.7258" y="-15.4" font-family="sans-serif" font-size="14.00" fill="#000000"> &#160;Exports</text>
<g id="clust1" class="cluster">
<title>cluster_ManagementModule</title>
<polygon fill="none" stroke="#000000" stroke-dasharray="1,5" points="8,-70 8,-268 992,-268 992,-70 8,-70"/>
</g>
<g id="clust4" class="cluster">
<title>cluster_ManagementModule_exports</title>
<polygon fill="none" stroke="#000000" points="117,-208 117,-260 860,-260 860,-208 117,-208"/>
</g>
<g id="clust6" class="cluster">
<title>cluster_ManagementModule_providers</title>
<polygon fill="none" stroke="#000000" points="16,-78 16,-130 984,-130 984,-78 16,-78"/>
</g>
<!-- PlatformInterestService  -->
<g id="node1" class="node">
<title>PlatformInterestService </title>
<polygon fill="#fb8072" stroke="#000000" points="852.4446,-252 699.5554,-252 699.5554,-216 852.4446,-216 852.4446,-252"/>
<text text-anchor="middle" x="776" y="-229.8" font-family="Times,serif" font-size="14.00" fill="#000000">PlatformInterestService </text>
</g>
<!-- PointsConversionService  -->
<g id="node2" class="node">
<title>PointsConversionService </title>
<polygon fill="#fb8072" stroke="#000000" points="681.533,-252 520.467,-252 520.467,-216 681.533,-216 681.533,-252"/>
<text text-anchor="middle" x="601" y="-229.8" font-family="Times,serif" font-size="14.00" fill="#000000">PointsConversionService </text>
</g>
<!-- RoleService  -->
<g id="node3" class="node">
<title>RoleService </title>
<polygon fill="#fb8072" stroke="#000000" points="502.9194,-252 415.0806,-252 415.0806,-216 502.9194,-216 502.9194,-252"/>
<text text-anchor="middle" x="459" y="-229.8" font-family="Times,serif" font-size="14.00" fill="#000000">RoleService </text>
</g>
<!-- StateService  -->
<g id="node4" class="node">
<title>StateService </title>
<polygon fill="#fb8072" stroke="#000000" points="396.9718,-252 307.0282,-252 307.0282,-216 396.9718,-216 396.9718,-252"/>
<text text-anchor="middle" x="352" y="-229.8" font-family="Times,serif" font-size="14.00" fill="#000000">StateService </text>
</g>
<!-- ThirdPartyInterestService  -->
<g id="node5" class="node">
<title>ThirdPartyInterestService </title>
<polygon fill="#fb8072" stroke="#000000" points="289.106,-252 124.894,-252 124.894,-216 289.106,-216 289.106,-252"/>
<text text-anchor="middle" x="207" y="-229.8" font-family="Times,serif" font-size="14.00" fill="#000000">ThirdPartyInterestService </text>
</g>
<!-- ManagementModule -->
<g id="node6" class="node">
<title>ManagementModule</title>
<polygon fill="#8dd3c7" stroke="#000000" points="525.1345,-187 522.1345,-191 501.1345,-191 498.1345,-187 392.8655,-187 392.8655,-151 525.1345,-151 525.1345,-187"/>
<text text-anchor="middle" x="459" y="-164.8" font-family="Times,serif" font-size="14.00" fill="#000000">ManagementModule</text>
</g>
<!-- ManagementModule&#45;&gt;PlatformInterestService  -->
<g id="edge1" class="edge">
<title>ManagementModule&#45;&gt;PlatformInterestService </title>
<path fill="none" stroke="#000000" stroke-dasharray="5,2" d="M525.3979,-169C604.5387,-169 726.2207,-169 726.2207,-169 726.2207,-169 726.2207,-205.8939 726.2207,-205.8939"/>
<polygon fill="#000000" stroke="#000000" points="722.7208,-205.8938 726.2207,-215.8939 729.7208,-205.8939 722.7208,-205.8938"/>
</g>
<!-- ManagementModule&#45;&gt;PointsConversionService  -->
<g id="edge2" class="edge">
<title>ManagementModule&#45;&gt;PointsConversionService </title>
<path fill="none" stroke="#000000" stroke-dasharray="5,2" d="M525.1972,-178C528.4069,-178 530.3268,-178 530.3268,-178 530.3268,-178 530.3268,-205.973 530.3268,-205.973"/>
<polygon fill="#000000" stroke="#000000" points="526.8269,-205.973 530.3268,-215.973 533.8269,-205.973 526.8269,-205.973"/>
</g>
<!-- ManagementModule&#45;&gt;RoleService  -->
<g id="edge3" class="edge">
<title>ManagementModule&#45;&gt;RoleService </title>
<path fill="none" stroke="#000000" stroke-dasharray="5,2" d="M459,-187.1061C459,-187.1061 459,-205.991 459,-205.991"/>
<polygon fill="#000000" stroke="#000000" points="455.5001,-205.9909 459,-215.991 462.5001,-205.991 455.5001,-205.9909"/>
</g>
<!-- ManagementModule&#45;&gt;StateService  -->
<g id="edge4" class="edge">
<title>ManagementModule&#45;&gt;StateService </title>
<path fill="none" stroke="#000000" stroke-dasharray="5,2" d="M392.6347,-178C389.4167,-178 387.492,-178 387.492,-178 387.492,-178 387.492,-205.973 387.492,-205.973"/>
<polygon fill="#000000" stroke="#000000" points="383.9921,-205.973 387.492,-215.973 390.9921,-205.973 383.9921,-205.973"/>
</g>
<!-- ManagementModule&#45;&gt;ThirdPartyInterestService  -->
<g id="edge5" class="edge">
<title>ManagementModule&#45;&gt;ThirdPartyInterestService </title>
<path fill="none" stroke="#000000" stroke-dasharray="5,2" d="M392.8103,-169C340.5465,-169 276.376,-169 276.376,-169 276.376,-169 276.376,-205.8939 276.376,-205.8939"/>
<polygon fill="#000000" stroke="#000000" points="272.8761,-205.8938 276.376,-215.8939 279.8761,-205.8939 272.8761,-205.8938"/>
</g>
<!-- PlatformInterestService -->
<g id="node7" class="node">
<title>PlatformInterestService</title>
<ellipse fill="#fdb462" stroke="#000000" cx="873" cy="-104" rx="102.9783" ry="18"/>
<text text-anchor="middle" x="873" y="-99.8" font-family="Times,serif" font-size="14.00" fill="#000000">PlatformInterestService</text>
</g>
<!-- PlatformInterestService&#45;&gt;ManagementModule -->
<g id="edge6" class="edge">
<title>PlatformInterestService&#45;&gt;ManagementModule</title>
<path fill="none" stroke="#000000" d="M811.2416,-118.4214C811.2416,-135.0138 811.2416,-160 811.2416,-160 811.2416,-160 535.2539,-160 535.2539,-160"/>
<polygon fill="#000000" stroke="#000000" points="535.254,-156.5001 525.2539,-160 535.2539,-163.5001 535.254,-156.5001"/>
</g>
<!-- PointsConversionService -->
<g id="node8" class="node">
<title>PointsConversionService</title>
<ellipse fill="#fdb462" stroke="#000000" cx="644" cy="-104" rx="108.827" ry="18"/>
<text text-anchor="middle" x="644" y="-99.8" font-family="Times,serif" font-size="14.00" fill="#000000">PointsConversionService</text>
</g>
<!-- PointsConversionService&#45;&gt;ManagementModule -->
<g id="edge7" class="edge">
<title>PointsConversionService&#45;&gt;ManagementModule</title>
<path fill="none" stroke="#000000" d="M534.8767,-104C526.5343,-104 521.274,-104 521.274,-104 521.274,-104 521.274,-140.8939 521.274,-140.8939"/>
<polygon fill="#000000" stroke="#000000" points="517.7741,-140.8938 521.274,-150.8939 524.7741,-140.8939 517.7741,-140.8938"/>
</g>
<!-- RoleService -->
<g id="node9" class="node">
<title>RoleService</title>
<ellipse fill="#fdb462" stroke="#000000" cx="459" cy="-104" rx="58.4628" ry="18"/>
<text text-anchor="middle" x="459" y="-99.8" font-family="Times,serif" font-size="14.00" fill="#000000">RoleService</text>
</g>
<!-- RoleService&#45;&gt;ManagementModule -->
<g id="edge8" class="edge">
<title>RoleService&#45;&gt;ManagementModule</title>
<path fill="none" stroke="#000000" d="M459,-122.1061C459,-122.1061 459,-140.991 459,-140.991"/>
<polygon fill="#000000" stroke="#000000" points="455.5001,-140.9909 459,-150.991 462.5001,-140.991 455.5001,-140.9909"/>
</g>
<!-- StateService -->
<g id="node10" class="node">
<title>StateService</title>
<ellipse fill="#fdb462" stroke="#000000" cx="323" cy="-104" rx="59.1026" ry="18"/>
<text text-anchor="middle" x="323" y="-99.8" font-family="Times,serif" font-size="14.00" fill="#000000">StateService</text>
</g>
<!-- StateService&#45;&gt;ManagementModule -->
<g id="edge9" class="edge">
<title>StateService&#45;&gt;ManagementModule</title>
<path fill="none" stroke="#000000" d="M382.5109,-104C390.8942,-104 396.726,-104 396.726,-104 396.726,-104 396.726,-140.8939 396.726,-140.8939"/>
<polygon fill="#000000" stroke="#000000" points="393.2261,-140.8938 396.726,-150.8939 400.2261,-140.8939 393.2261,-140.8938"/>
</g>
<!-- ThirdPartyInterestService -->
<g id="node11" class="node">
<title>ThirdPartyInterestService</title>
<ellipse fill="#fdb462" stroke="#000000" cx="135" cy="-104" rx="110.5666" ry="18"/>
<text text-anchor="middle" x="135" y="-99.8" font-family="Times,serif" font-size="14.00" fill="#000000">ThirdPartyInterestService</text>
</g>
<!-- ThirdPartyInterestService&#45;&gt;ManagementModule -->
<g id="edge10" class="edge">
<title>ThirdPartyInterestService&#45;&gt;ManagementModule</title>
<path fill="none" stroke="#000000" d="M185.365,-120.1975C185.365,-136.7365 185.365,-160 185.365,-160 185.365,-160 382.7606,-160 382.7606,-160"/>
<polygon fill="#000000" stroke="#000000" points="382.7606,-163.5001 392.7606,-160 382.7606,-156.5001 382.7606,-163.5001"/>
</g>
</g>
</svg>
