<?xml version="1.0" encoding="UTF-8" standalone="no"?>
<!DOCTYPE svg PUBLIC "-//W3C//DTD SVG 1.1//EN"
 "http://www.w3.org/Graphics/SVG/1.1/DTD/svg11.dtd">
<!-- Generated by graphviz version 2.40.1 (20161225.0304)
 -->
<!-- Title: dependencies Pages: 1 -->
<svg width="1008pt" height="284pt"
 viewBox="0.00 0.00 1008.00 284.00" xmlns="http://www.w3.org/2000/svg" xmlns:xlink="http://www.w3.org/1999/xlink">
<g id="graph0" class="graph" transform="scale(1 1) rotate(0) translate(4 280)">
<title>dependencies</title>
<polygon fill="#ffffff" stroke="transparent" points="-4,4 -4,-280 1004,-280 1004,4 -4,4"/>
<text text-anchor="start" x="479.0091" y="-42.4" font-family="sans-serif" font-weight="bold" font-size="14.00" fill="#000000">Legend</text>
<polygon fill="#ffffb3" stroke="transparent" points="266,-10 266,-30 286,-30 286,-10 266,-10"/>
<text text-anchor="start" x="289.629" y="-15.4" font-family="sans-serif" font-size="14.00" fill="#000000"> &#160;Declarations</text>
<polygon fill="#8dd3c7" stroke="transparent" points="379,-10 379,-30 399,-30 399,-10 379,-10"/>
<text text-anchor="start" x="402.7251" y="-15.4" font-family="sans-serif" font-size="14.00" fill="#000000"> &#160;Module</text>
<polygon fill="#80b1d3" stroke="transparent" points="465,-10 465,-30 485,-30 485,-10 465,-10"/>
<text text-anchor="start" x="488.7812" y="-15.4" font-family="sans-serif" font-size="14.00" fill="#000000"> &#160;Bootstrap</text>
<polygon fill="#fdb462" stroke="transparent" points="562,-10 562,-30 582,-30 582,-10 562,-10"/>
<text text-anchor="start" x="585.6732" y="-15.4" font-family="sans-serif" font-size="14.00" fill="#000000"> &#160;Providers</text>
<polygon fill="#fb8072" stroke="transparent" points="658,-10 658,-30 678,-30 678,-10 658,-10"/>
<text text-anchor="start" x="681.7258" y="-15.4" font-family="sans-serif" font-size="14.00" fill="#000000"> &#160;Exports</text>
<g id="clust1" class="cluster">
<title>cluster_PlatformAdministratorModule</title>
<polygon fill="none" stroke="#000000" stroke-dasharray="1,5" points="8,-70 8,-268 992,-268 992,-70 8,-70"/>
</g>
<g id="clust4" class="cluster">
<title>cluster_PlatformAdministratorModule_exports</title>
<polygon fill="none" stroke="#000000" points="117,-208 117,-260 860,-260 860,-208 117,-208"/>
</g>
<g id="clust6" class="cluster">
<title>cluster_PlatformAdministratorModule_providers</title>
<polygon fill="none" stroke="#000000" points="16,-78 16,-130 984,-130 984,-78 16,-78"/>
</g>
<!-- PlatformInterestService  -->
<g id="node1" class="node">
<title>PlatformInterestService </title>
<polygon fill="#fb8072" stroke="#000000" points="852.4446,-252 699.5554,-252 699.5554,-216 852.4446,-216 852.4446,-252"/>
<text text-anchor="middle" x="776" y="-229.8" font-family="Times,serif" font-size="14.00" fill="#000000">PlatformInterestService </text>
</g>
<!-- PointsConversionService  -->
<g id="node2" class="node">
<title>PointsConversionService </title>
<polygon fill="#fb8072" stroke="#000000" points="681.533,-252 520.467,-252 520.467,-216 681.533,-216 681.533,-252"/>
<text text-anchor="middle" x="601" y="-229.8" font-family="Times,serif" font-size="14.00" fill="#000000">PointsConversionService </text>
</g>
<!-- RoleService  -->
<g id="node3" class="node">
<title>RoleService </title>
<polygon fill="#fb8072" stroke="#000000" points="502.9194,-252 415.0806,-252 415.0806,-216 502.9194,-216 502.9194,-252"/>
<text text-anchor="middle" x="459" y="-229.8" font-family="Times,serif" font-size="14.00" fill="#000000">RoleService </text>
</g>
<!-- StateService  -->
<g id="node4" class="node">
<title>StateService </title>
<polygon fill="#fb8072" stroke="#000000" points="396.9718,-252 307.0282,-252 307.0282,-216 396.9718,-216 396.9718,-252"/>
<text text-anchor="middle" x="352" y="-229.8" font-family="Times,serif" font-size="14.00" fill="#000000">StateService </text>
</g>
<!-- ThirdPartyInterestService  -->
<g id="node5" class="node">
<title>ThirdPartyInterestService </title>
<polygon fill="#fb8072" stroke="#000000" points="289.106,-252 124.894,-252 124.894,-216 289.106,-216 289.106,-252"/>
<text text-anchor="middle" x="207" y="-229.8" font-family="Times,serif" font-size="14.00" fill="#000000">ThirdPartyInterestService </text>
</g>
<!-- PlatformAdministratorModule -->
<g id="node6" class="node">
<title>PlatformAdministratorModule</title>
<polygon fill="#8dd3c7" stroke="#000000" points="552.58,-187 549.58,-191 528.58,-191 525.58,-187 365.42,-187 365.42,-151 552.58,-151 552.58,-187"/>
<text text-anchor="middle" x="459" y="-164.8" font-family="Times,serif" font-size="14.00" fill="#000000">PlatformAdministratorModule</text>
</g>
<!-- PlatformAdministratorModule&#45;&gt;PlatformInterestService  -->
<g id="edge1" class="edge">
<title>PlatformAdministratorModule&#45;&gt;PlatformInterestService </title>
<path fill="none" stroke="#000000" stroke-dasharray="5,2" d="M552.8363,-175C629.8333,-175 726.2207,-175 726.2207,-175 726.2207,-175 726.2207,-205.9775 726.2207,-205.9775"/>
<polygon fill="#000000" stroke="#000000" points="722.7208,-205.9774 726.2207,-215.9775 729.7208,-205.9775 722.7208,-205.9774"/>
</g>
<!-- PlatformAdministratorModule&#45;&gt;PointsConversionService  -->
<g id="edge2" class="edge">
<title>PlatformAdministratorModule&#45;&gt;PointsConversionService </title>
<path fill="none" stroke="#000000" stroke-dasharray="5,2" d="M536.5118,-187.1061C536.5118,-187.1061 536.5118,-205.991 536.5118,-205.991"/>
<polygon fill="#000000" stroke="#000000" points="533.0118,-205.9909 536.5118,-215.991 540.0118,-205.991 533.0118,-205.9909"/>
</g>
<!-- PlatformAdministratorModule&#45;&gt;RoleService  -->
<g id="edge3" class="edge">
<title>PlatformAdministratorModule&#45;&gt;RoleService </title>
<path fill="none" stroke="#000000" stroke-dasharray="5,2" d="M459,-187.1061C459,-187.1061 459,-205.991 459,-205.991"/>
<polygon fill="#000000" stroke="#000000" points="455.5001,-205.9909 459,-215.991 462.5001,-205.991 455.5001,-205.9909"/>
</g>
<!-- PlatformAdministratorModule&#45;&gt;StateService  -->
<g id="edge4" class="edge">
<title>PlatformAdministratorModule&#45;&gt;StateService </title>
<path fill="none" stroke="#000000" stroke-dasharray="5,2" d="M381.0977,-187.1061C381.0977,-187.1061 381.0977,-205.991 381.0977,-205.991"/>
<polygon fill="#000000" stroke="#000000" points="377.5977,-205.9909 381.0977,-215.991 384.5977,-205.991 377.5977,-205.9909"/>
</g>
<!-- PlatformAdministratorModule&#45;&gt;ThirdPartyInterestService  -->
<g id="edge5" class="edge">
<title>PlatformAdministratorModule&#45;&gt;ThirdPartyInterestService </title>
<path fill="none" stroke="#000000" stroke-dasharray="5,2" d="M365.2806,-175C320.441,-175 276.376,-175 276.376,-175 276.376,-175 276.376,-205.9775 276.376,-205.9775"/>
<polygon fill="#000000" stroke="#000000" points="272.8761,-205.9774 276.376,-215.9775 279.8761,-205.9775 272.8761,-205.9774"/>
</g>
<!-- PlatformInterestService -->
<g id="node7" class="node">
<title>PlatformInterestService</title>
<ellipse fill="#fdb462" stroke="#000000" cx="873" cy="-104" rx="102.9783" ry="18"/>
<text text-anchor="middle" x="873" y="-99.8" font-family="Times,serif" font-size="14.00" fill="#000000">PlatformInterestService</text>
</g>
<!-- PlatformInterestService&#45;&gt;PlatformAdministratorModule -->
<g id="edge6" class="edge">
<title>PlatformInterestService&#45;&gt;PlatformAdministratorModule</title>
<path fill="none" stroke="#000000" d="M811.2416,-118.5843C811.2416,-136.0559 811.2416,-163 811.2416,-163 811.2416,-163 562.9316,-163 562.9316,-163"/>
<polygon fill="#000000" stroke="#000000" points="562.9316,-159.5001 552.9316,-163 562.9315,-166.5001 562.9316,-159.5001"/>
</g>
<!-- PointsConversionService -->
<g id="node8" class="node">
<title>PointsConversionService</title>
<ellipse fill="#fdb462" stroke="#000000" cx="644" cy="-104" rx="108.827" ry="18"/>
<text text-anchor="middle" x="644" y="-99.8" font-family="Times,serif" font-size="14.00" fill="#000000">PointsConversionService</text>
</g>
<!-- PointsConversionService&#45;&gt;PlatformAdministratorModule -->
<g id="edge7" class="edge">
<title>PointsConversionService&#45;&gt;PlatformAdministratorModule</title>
<path fill="none" stroke="#000000" d="M543.9383,-111.2045C543.9383,-111.2045 543.9383,-140.9586 543.9383,-140.9586"/>
<polygon fill="#000000" stroke="#000000" points="540.4384,-140.9586 543.9383,-150.9586 547.4384,-140.9587 540.4384,-140.9586"/>
</g>
<!-- RoleService -->
<g id="node9" class="node">
<title>RoleService</title>
<ellipse fill="#fdb462" stroke="#000000" cx="459" cy="-104" rx="58.4628" ry="18"/>
<text text-anchor="middle" x="459" y="-99.8" font-family="Times,serif" font-size="14.00" fill="#000000">RoleService</text>
</g>
<!-- RoleService&#45;&gt;PlatformAdministratorModule -->
<g id="edge8" class="edge">
<title>RoleService&#45;&gt;PlatformAdministratorModule</title>
<path fill="none" stroke="#000000" d="M459,-122.1061C459,-122.1061 459,-140.991 459,-140.991"/>
<polygon fill="#000000" stroke="#000000" points="455.5001,-140.9909 459,-150.991 462.5001,-140.991 455.5001,-140.9909"/>
</g>
<!-- StateService -->
<g id="node10" class="node">
<title>StateService</title>
<ellipse fill="#fdb462" stroke="#000000" cx="323" cy="-104" rx="59.1026" ry="18"/>
<text text-anchor="middle" x="323" y="-99.8" font-family="Times,serif" font-size="14.00" fill="#000000">StateService</text>
</g>
<!-- StateService&#45;&gt;PlatformAdministratorModule -->
<g id="edge9" class="edge">
<title>StateService&#45;&gt;PlatformAdministratorModule</title>
<path fill="none" stroke="#000000" d="M373.8805,-113.3129C373.8805,-113.3129 373.8805,-140.852 373.8805,-140.852"/>
<polygon fill="#000000" stroke="#000000" points="370.3806,-140.852 373.8805,-150.852 377.3806,-140.8521 370.3806,-140.852"/>
</g>
<!-- ThirdPartyInterestService -->
<g id="node11" class="node">
<title>ThirdPartyInterestService</title>
<ellipse fill="#fdb462" stroke="#000000" cx="135" cy="-104" rx="110.5666" ry="18"/>
<text text-anchor="middle" x="135" y="-99.8" font-family="Times,serif" font-size="14.00" fill="#000000">ThirdPartyInterestService</text>
</g>
<!-- ThirdPartyInterestService&#45;&gt;PlatformAdministratorModule -->
<g id="edge10" class="edge">
<title>ThirdPartyInterestService&#45;&gt;PlatformAdministratorModule</title>
<path fill="none" stroke="#000000" d="M185.365,-120.122C185.365,-137.5908 185.365,-163 185.365,-163 185.365,-163 355.2132,-163 355.2132,-163"/>
<polygon fill="#000000" stroke="#000000" points="355.2132,-166.5001 365.2132,-163 355.2132,-159.5001 355.2132,-166.5001"/>
</g>
</g>
</svg>
