<?xml version="1.0" encoding="UTF-8" standalone="no"?>
<!DOCTYPE svg PUBLIC "-//W3C//DTD SVG 1.1//EN"
 "http://www.w3.org/Graphics/SVG/1.1/DTD/svg11.dtd">
<!-- Generated by graphviz version 2.40.1 (20161225.0304)
 -->
<!-- Title: dependencies Pages: 1 -->
<svg width="504pt" height="284pt"
 viewBox="0.00 0.00 504.00 284.00" xmlns="http://www.w3.org/2000/svg" xmlns:xlink="http://www.w3.org/1999/xlink">
<g id="graph0" class="graph" transform="scale(1 1) rotate(0) translate(4 280)">
<title>dependencies</title>
<polygon fill="#ffffff" stroke="transparent" points="-4,4 -4,-280 500,-280 500,4 -4,4"/>
<text text-anchor="start" x="227.0091" y="-42.4" font-family="sans-serif" font-weight="bold" font-size="14.00" fill="#000000">Legend</text>
<polygon fill="#ffffb3" stroke="transparent" points="14,-10 14,-30 34,-30 34,-10 14,-10"/>
<text text-anchor="start" x="37.629" y="-15.4" font-family="sans-serif" font-size="14.00" fill="#000000"> &#160;Declarations</text>
<polygon fill="#8dd3c7" stroke="transparent" points="127,-10 127,-30 147,-30 147,-10 127,-10"/>
<text text-anchor="start" x="150.7251" y="-15.4" font-family="sans-serif" font-size="14.00" fill="#000000"> &#160;Module</text>
<polygon fill="#80b1d3" stroke="transparent" points="213,-10 213,-30 233,-30 233,-10 213,-10"/>
<text text-anchor="start" x="236.7812" y="-15.4" font-family="sans-serif" font-size="14.00" fill="#000000"> &#160;Bootstrap</text>
<polygon fill="#fdb462" stroke="transparent" points="310,-10 310,-30 330,-30 330,-10 310,-10"/>
<text text-anchor="start" x="333.6732" y="-15.4" font-family="sans-serif" font-size="14.00" fill="#000000"> &#160;Providers</text>
<polygon fill="#fb8072" stroke="transparent" points="406,-10 406,-30 426,-30 426,-10 406,-10"/>
<text text-anchor="start" x="429.7258" y="-15.4" font-family="sans-serif" font-size="14.00" fill="#000000"> &#160;Exports</text>
<g id="clust1" class="cluster">
<title>cluster_PlatformAdministratorModule</title>
<polygon fill="none" stroke="#000000" stroke-dasharray="1,5" points="105.5,-70 105.5,-268 390.5,-268 390.5,-70 105.5,-70"/>
</g>
<g id="clust4" class="cluster">
<title>cluster_PlatformAdministratorModule_exports</title>
<polygon fill="none" stroke="#000000" points="141.5,-208 141.5,-260 353.5,-260 353.5,-208 141.5,-208"/>
</g>
<g id="clust6" class="cluster">
<title>cluster_PlatformAdministratorModule_providers</title>
<polygon fill="none" stroke="#000000" points="113.5,-78 113.5,-130 382.5,-130 382.5,-78 113.5,-78"/>
</g>
<!-- RoleService  -->
<g id="node1" class="node">
<title>RoleService </title>
<polygon fill="#fb8072" stroke="#000000" points="345.4194,-252 257.5806,-252 257.5806,-216 345.4194,-216 345.4194,-252"/>
<text text-anchor="middle" x="301.5" y="-229.8" font-family="Times,serif" font-size="14.00" fill="#000000">RoleService </text>
</g>
<!-- StateService  -->
<g id="node2" class="node">
<title>StateService </title>
<polygon fill="#fb8072" stroke="#000000" points="239.4718,-252 149.5282,-252 149.5282,-216 239.4718,-216 239.4718,-252"/>
<text text-anchor="middle" x="194.5" y="-229.8" font-family="Times,serif" font-size="14.00" fill="#000000">StateService </text>
</g>
<!-- PlatformAdministratorModule -->
<g id="node3" class="node">
<title>PlatformAdministratorModule</title>
<polygon fill="#8dd3c7" stroke="#000000" points="334.08,-187 331.08,-191 310.08,-191 307.08,-187 146.92,-187 146.92,-151 334.08,-151 334.08,-187"/>
<text text-anchor="middle" x="240.5" y="-164.8" font-family="Times,serif" font-size="14.00" fill="#000000">PlatformAdministratorModule</text>
</g>
<!-- PlatformAdministratorModule&#45;&gt;RoleService  -->
<g id="edge1" class="edge">
<title>PlatformAdministratorModule&#45;&gt;RoleService </title>
<path fill="none" stroke="#000000" stroke-dasharray="5,2" d="M295.7902,-187.1061C295.7902,-187.1061 295.7902,-205.991 295.7902,-205.991"/>
<polygon fill="#000000" stroke="#000000" points="292.2902,-205.9909 295.7902,-215.991 299.2902,-205.991 292.2902,-205.9909"/>
</g>
<!-- PlatformAdministratorModule&#45;&gt;StateService  -->
<g id="edge2" class="edge">
<title>PlatformAdministratorModule&#45;&gt;StateService </title>
<path fill="none" stroke="#000000" stroke-dasharray="5,2" d="M194.5,-187.1061C194.5,-187.1061 194.5,-205.991 194.5,-205.991"/>
<polygon fill="#000000" stroke="#000000" points="191.0001,-205.9909 194.5,-215.991 198.0001,-205.991 191.0001,-205.9909"/>
</g>
<!-- RoleService -->
<g id="node4" class="node">
<title>RoleService</title>
<ellipse fill="#fdb462" stroke="#000000" cx="316.5" cy="-104" rx="58.4628" ry="18"/>
<text text-anchor="middle" x="316.5" y="-99.8" font-family="Times,serif" font-size="14.00" fill="#000000">RoleService</text>
</g>
<!-- RoleService&#45;&gt;PlatformAdministratorModule -->
<g id="edge3" class="edge">
<title>RoleService&#45;&gt;PlatformAdministratorModule</title>
<path fill="none" stroke="#000000" d="M296.1545,-121.078C296.1545,-121.078 296.1545,-140.8993 296.1545,-140.8993"/>
<polygon fill="#000000" stroke="#000000" points="292.6546,-140.8992 296.1545,-150.8993 299.6546,-140.8993 292.6546,-140.8992"/>
</g>
<!-- StateService -->
<g id="node5" class="node">
<title>StateService</title>
<ellipse fill="#fdb462" stroke="#000000" cx="180.5" cy="-104" rx="59.1026" ry="18"/>
<text text-anchor="middle" x="180.5" y="-99.8" font-family="Times,serif" font-size="14.00" fill="#000000">StateService</text>
</g>
<!-- StateService&#45;&gt;PlatformAdministratorModule -->
<g id="edge4" class="edge">
<title>StateService&#45;&gt;PlatformAdministratorModule</title>
<path fill="none" stroke="#000000" d="M193.3805,-121.7615C193.3805,-121.7615 193.3805,-140.8074 193.3805,-140.8074"/>
<polygon fill="#000000" stroke="#000000" points="189.8806,-140.8074 193.3805,-150.8074 196.8806,-140.8075 189.8806,-140.8074"/>
</g>
</g>
</svg>
