<?xml version="1.0" encoding="UTF-8" standalone="no"?>
<!DOCTYPE svg PUBLIC "-//W3C//DTD SVG 1.1//EN"
 "http://www.w3.org/Graphics/SVG/1.1/DTD/svg11.dtd">
<!-- Generated by graphviz version 2.40.1 (20161225.0304)
 -->
<!-- Title: dependencies Pages: 1 -->
<svg width="918pt" height="284pt"
 viewBox="0.00 0.00 918.00 284.00" xmlns="http://www.w3.org/2000/svg" xmlns:xlink="http://www.w3.org/1999/xlink">
<g id="graph0" class="graph" transform="scale(1 1) rotate(0) translate(4 280)">
<title>dependencies</title>
<polygon fill="#ffffff" stroke="transparent" points="-4,4 -4,-280 914,-280 914,4 -4,4"/>
<text text-anchor="start" x="434.0091" y="-42.4" font-family="sans-serif" font-weight="bold" font-size="14.00" fill="#000000">Legend</text>
<polygon fill="#ffffb3" stroke="transparent" points="221,-10 221,-30 241,-30 241,-10 221,-10"/>
<text text-anchor="start" x="244.629" y="-15.4" font-family="sans-serif" font-size="14.00" fill="#000000"> &#160;Declarations</text>
<polygon fill="#8dd3c7" stroke="transparent" points="334,-10 334,-30 354,-30 354,-10 334,-10"/>
<text text-anchor="start" x="357.7251" y="-15.4" font-family="sans-serif" font-size="14.00" fill="#000000"> &#160;Module</text>
<polygon fill="#80b1d3" stroke="transparent" points="420,-10 420,-30 440,-30 440,-10 420,-10"/>
<text text-anchor="start" x="443.7812" y="-15.4" font-family="sans-serif" font-size="14.00" fill="#000000"> &#160;Bootstrap</text>
<polygon fill="#fdb462" stroke="transparent" points="517,-10 517,-30 537,-30 537,-10 517,-10"/>
<text text-anchor="start" x="540.6732" y="-15.4" font-family="sans-serif" font-size="14.00" fill="#000000"> &#160;Providers</text>
<polygon fill="#fb8072" stroke="transparent" points="613,-10 613,-30 633,-30 633,-10 613,-10"/>
<text text-anchor="start" x="636.7258" y="-15.4" font-family="sans-serif" font-size="14.00" fill="#000000"> &#160;Exports</text>
<g id="clust1" class="cluster">
<title>cluster_UserModule</title>
<polygon fill="none" stroke="#000000" stroke-dasharray="1,5" points="8,-70 8,-268 902,-268 902,-70 8,-70"/>
</g>
<g id="clust3" class="cluster">
<title>cluster_UserModule_imports</title>
<polygon fill="none" stroke="#000000" points="690,-78 690,-130 894,-130 894,-78 690,-78"/>
</g>
<g id="clust4" class="cluster">
<title>cluster_UserModule_exports</title>
<polygon fill="none" stroke="#000000" points="175,-208 175,-260 691,-260 691,-208 175,-208"/>
</g>
<g id="clust6" class="cluster">
<title>cluster_UserModule_providers</title>
<polygon fill="none" stroke="#000000" points="16,-78 16,-130 682,-130 682,-78 16,-78"/>
</g>
<!-- PlatformAdministratorModule -->
<g id="node1" class="node">
<title>PlatformAdministratorModule</title>
<polygon fill="#8dd3c7" stroke="#000000" points="885.58,-122 882.58,-126 861.58,-126 858.58,-122 698.42,-122 698.42,-86 885.58,-86 885.58,-122"/>
<text text-anchor="middle" x="792" y="-99.8" font-family="Times,serif" font-size="14.00" fill="#000000">PlatformAdministratorModule</text>
</g>
<!-- UserModule -->
<g id="node2" class="node">
<title>UserModule</title>
<polygon fill="#8dd3c7" stroke="#000000" points="457.9762,-187 454.9762,-191 433.9762,-191 430.9762,-187 372.0238,-187 372.0238,-151 457.9762,-151 457.9762,-187"/>
<text text-anchor="middle" x="415" y="-164.8" font-family="Times,serif" font-size="14.00" fill="#000000">UserModule</text>
</g>
<!-- PlatformAdministratorModule&#45;&gt;UserModule -->
<g id="edge1" class="edge">
<title>PlatformAdministratorModule&#45;&gt;UserModule</title>
<path fill="none" stroke="#000000" d="M792,-122.1061C792,-141.3391 792,-169 792,-169 792,-169 468.2467,-169 468.2467,-169"/>
<polygon fill="#000000" stroke="#000000" points="468.2467,-165.5001 458.2467,-169 468.2467,-172.5001 468.2467,-165.5001"/>
</g>
<!-- StateUserService  -->
<g id="node3" class="node">
<title>StateUserService </title>
<polygon fill="#fb8072" stroke="#000000" points="682.897,-252 567.103,-252 567.103,-216 682.897,-216 682.897,-252"/>
<text text-anchor="middle" x="625" y="-229.8" font-family="Times,serif" font-size="14.00" fill="#000000">StateUserService </text>
</g>
<!-- UserModule&#45;&gt;StateUserService  -->
<g id="edge2" class="edge">
<title>UserModule&#45;&gt;StateUserService </title>
<path fill="none" stroke="#000000" stroke-dasharray="5,2" d="M458.0356,-178C518.2333,-178 620.2905,-178 620.2905,-178 620.2905,-178 620.2905,-205.973 620.2905,-205.973"/>
<polygon fill="#000000" stroke="#000000" points="616.7906,-205.973 620.2905,-215.973 623.7906,-205.973 616.7906,-205.973"/>
</g>
<!-- UserDetailsService  -->
<g id="node4" class="node">
<title>UserDetailsService </title>
<polygon fill="#fb8072" stroke="#000000" points="548.557,-252 421.443,-252 421.443,-216 548.557,-216 548.557,-252"/>
<text text-anchor="middle" x="485" y="-229.8" font-family="Times,serif" font-size="14.00" fill="#000000">UserDetailsService </text>
</g>
<!-- UserModule&#45;&gt;UserDetailsService  -->
<g id="edge3" class="edge">
<title>UserModule&#45;&gt;UserDetailsService </title>
<path fill="none" stroke="#000000" stroke-dasharray="5,2" d="M439.605,-187.1061C439.605,-187.1061 439.605,-205.991 439.605,-205.991"/>
<polygon fill="#000000" stroke="#000000" points="436.1051,-205.9909 439.605,-215.991 443.1051,-205.991 436.1051,-205.9909"/>
</g>
<!-- UserRoleService  -->
<g id="node5" class="node">
<title>UserRoleService </title>
<polygon fill="#fb8072" stroke="#000000" points="403.3463,-252 288.6537,-252 288.6537,-216 403.3463,-216 403.3463,-252"/>
<text text-anchor="middle" x="346" y="-229.8" font-family="Times,serif" font-size="14.00" fill="#000000">UserRoleService </text>
</g>
<!-- UserModule&#45;&gt;UserRoleService  -->
<g id="edge4" class="edge">
<title>UserModule&#45;&gt;UserRoleService </title>
<path fill="none" stroke="#000000" stroke-dasharray="5,2" d="M387.5924,-187.1061C387.5924,-187.1061 387.5924,-205.991 387.5924,-205.991"/>
<polygon fill="#000000" stroke="#000000" points="384.0925,-205.9909 387.5924,-215.991 391.0925,-205.991 384.0925,-205.9909"/>
</g>
<!-- UserService  -->
<g id="node6" class="node">
<title>UserService </title>
<polygon fill="#fb8072" stroke="#000000" points="270.9041,-252 183.0959,-252 183.0959,-216 270.9041,-216 270.9041,-252"/>
<text text-anchor="middle" x="227" y="-229.8" font-family="Times,serif" font-size="14.00" fill="#000000">UserService </text>
</g>
<!-- UserModule&#45;&gt;UserService  -->
<g id="edge5" class="edge">
<title>UserModule&#45;&gt;UserService </title>
<path fill="none" stroke="#000000" stroke-dasharray="5,2" d="M371.869,-178C316.365,-178 227,-178 227,-178 227,-178 227,-205.973 227,-205.973"/>
<polygon fill="#000000" stroke="#000000" points="223.5001,-205.973 227,-215.973 230.5001,-205.973 223.5001,-205.973"/>
</g>
<!-- StateUserService -->
<g id="node7" class="node">
<title>StateUserService</title>
<ellipse fill="#fdb462" stroke="#000000" cx="596" cy="-104" rx="77.5588" ry="18"/>
<text text-anchor="middle" x="596" y="-99.8" font-family="Times,serif" font-size="14.00" fill="#000000">StateUserService</text>
</g>
<!-- StateUserService&#45;&gt;UserModule -->
<g id="edge6" class="edge">
<title>StateUserService&#45;&gt;UserModule</title>
<path fill="none" stroke="#000000" d="M533.6243,-114.7974C533.6243,-131.0703 533.6243,-160 533.6243,-160 533.6243,-160 468.1617,-160 468.1617,-160"/>
<polygon fill="#000000" stroke="#000000" points="468.1617,-156.5001 458.1617,-160 468.1616,-163.5001 468.1617,-156.5001"/>
</g>
<!-- UserDetailsService -->
<g id="node8" class="node">
<title>UserDetailsService</title>
<ellipse fill="#fdb462" stroke="#000000" cx="415" cy="-104" rx="85.6435" ry="18"/>
<text text-anchor="middle" x="415" y="-99.8" font-family="Times,serif" font-size="14.00" fill="#000000">UserDetailsService</text>
</g>
<!-- UserDetailsService&#45;&gt;UserModule -->
<g id="edge7" class="edge">
<title>UserDetailsService&#45;&gt;UserModule</title>
<path fill="none" stroke="#000000" d="M415,-122.1061C415,-122.1061 415,-140.991 415,-140.991"/>
<polygon fill="#000000" stroke="#000000" points="411.5001,-140.9909 415,-150.991 418.5001,-140.991 411.5001,-140.9909"/>
</g>
<!-- UserRoleService -->
<g id="node9" class="node">
<title>UserRoleService</title>
<ellipse fill="#fdb462" stroke="#000000" cx="235" cy="-104" rx="76.4188" ry="18"/>
<text text-anchor="middle" x="235" y="-99.8" font-family="Times,serif" font-size="14.00" fill="#000000">UserRoleService</text>
</g>
<!-- UserRoleService&#45;&gt;UserModule -->
<g id="edge8" class="edge">
<title>UserRoleService&#45;&gt;UserModule</title>
<path fill="none" stroke="#000000" d="M300.1433,-113.4996C300.1433,-129.4767 300.1433,-160 300.1433,-160 300.1433,-160 361.9048,-160 361.9048,-160"/>
<polygon fill="#000000" stroke="#000000" points="361.9048,-163.5001 371.9048,-160 361.9048,-156.5001 361.9048,-163.5001"/>
</g>
<!-- UserService -->
<g id="node10" class="node">
<title>UserService</title>
<ellipse fill="#fdb462" stroke="#000000" cx="82" cy="-104" rx="58.4415" ry="18"/>
<text text-anchor="middle" x="82" y="-99.8" font-family="Times,serif" font-size="14.00" fill="#000000">UserService</text>
</g>
<!-- UserService&#45;&gt;UserModule -->
<g id="edge9" class="edge">
<title>UserService&#45;&gt;UserModule</title>
<path fill="none" stroke="#000000" d="M82,-122.1061C82,-141.3391 82,-169 82,-169 82,-169 361.8075,-169 361.8075,-169"/>
<polygon fill="#000000" stroke="#000000" points="361.8075,-172.5001 371.8075,-169 361.8074,-165.5001 361.8075,-172.5001"/>
</g>
</g>
</svg>
