<?xml version="1.0" encoding="UTF-8" standalone="no"?>
<!DOCTYPE svg PUBLIC "-//W3C//DTD SVG 1.1//EN"
 "http://www.w3.org/Graphics/SVG/1.1/DTD/svg11.dtd">
<!-- Generated by graphviz version 2.40.1 (20161225.0304)
 -->
<!-- Title: dependencies Pages: 1 -->
<svg width="1286pt" height="284pt"
 viewBox="0.00 0.00 1286.00 284.00" xmlns="http://www.w3.org/2000/svg" xmlns:xlink="http://www.w3.org/1999/xlink">
<g id="graph0" class="graph" transform="scale(1 1) rotate(0) translate(4 280)">
<title>dependencies</title>
<polygon fill="#ffffff" stroke="transparent" points="-4,4 -4,-280 1282,-280 1282,4 -4,4"/>
<text text-anchor="start" x="618.0091" y="-42.4" font-family="sans-serif" font-weight="bold" font-size="14.00" fill="#000000">Legend</text>
<polygon fill="#ffffb3" stroke="transparent" points="405,-10 405,-30 425,-30 425,-10 405,-10"/>
<text text-anchor="start" x="428.629" y="-15.4" font-family="sans-serif" font-size="14.00" fill="#000000"> &#160;Declarations</text>
<polygon fill="#8dd3c7" stroke="transparent" points="518,-10 518,-30 538,-30 538,-10 518,-10"/>
<text text-anchor="start" x="541.7251" y="-15.4" font-family="sans-serif" font-size="14.00" fill="#000000"> &#160;Module</text>
<polygon fill="#80b1d3" stroke="transparent" points="604,-10 604,-30 624,-30 624,-10 604,-10"/>
<text text-anchor="start" x="627.7812" y="-15.4" font-family="sans-serif" font-size="14.00" fill="#000000"> &#160;Bootstrap</text>
<polygon fill="#fdb462" stroke="transparent" points="701,-10 701,-30 721,-30 721,-10 701,-10"/>
<text text-anchor="start" x="724.6732" y="-15.4" font-family="sans-serif" font-size="14.00" fill="#000000"> &#160;Providers</text>
<polygon fill="#fb8072" stroke="transparent" points="797,-10 797,-30 817,-30 817,-10 797,-10"/>
<text text-anchor="start" x="820.7258" y="-15.4" font-family="sans-serif" font-size="14.00" fill="#000000"> &#160;Exports</text>
<g id="clust1" class="cluster">
<title>cluster_UserModule</title>
<polygon fill="none" stroke="#000000" stroke-dasharray="1,5" points="8,-70 8,-268 1270,-268 1270,-70 8,-70"/>
</g>
<g id="clust3" class="cluster">
<title>cluster_UserModule_imports</title>
<polygon fill="none" stroke="#000000" points="1114,-78 1114,-130 1262,-130 1262,-78 1114,-78"/>
</g>
<g id="clust4" class="cluster">
<title>cluster_UserModule_exports</title>
<polygon fill="none" stroke="#000000" points="219,-208 219,-260 1059,-260 1059,-208 219,-208"/>
</g>
<g id="clust6" class="cluster">
<title>cluster_UserModule_providers</title>
<polygon fill="none" stroke="#000000" points="16,-78 16,-130 1106,-130 1106,-78 16,-78"/>
</g>
<!-- ManagementModule -->
<g id="node1" class="node">
<title>ManagementModule</title>
<polygon fill="#8dd3c7" stroke="#000000" points="1254.1345,-122 1251.1345,-126 1230.1345,-126 1227.1345,-122 1121.8655,-122 1121.8655,-86 1254.1345,-86 1254.1345,-122"/>
<text text-anchor="middle" x="1188" y="-99.8" font-family="Times,serif" font-size="14.00" fill="#000000">ManagementModule</text>
</g>
<!-- UserModule -->
<g id="node2" class="node">
<title>UserModule</title>
<polygon fill="#8dd3c7" stroke="#000000" points="642.9762,-187 639.9762,-191 618.9762,-191 615.9762,-187 557.0238,-187 557.0238,-151 642.9762,-151 642.9762,-187"/>
<text text-anchor="middle" x="600" y="-164.8" font-family="Times,serif" font-size="14.00" fill="#000000">UserModule</text>
</g>
<!-- ManagementModule&#45;&gt;UserModule -->
<g id="edge1" class="edge">
<title>ManagementModule&#45;&gt;UserModule</title>
<path fill="none" stroke="#000000" d="M1188,-122.1061C1188,-141.3391 1188,-169 1188,-169 1188,-169 653.237,-169 653.237,-169"/>
<polygon fill="#000000" stroke="#000000" points="653.2371,-165.5001 643.237,-169 653.237,-172.5001 653.2371,-165.5001"/>
</g>
<!-- StateUserService  -->
<g id="node3" class="node">
<title>StateUserService </title>
<polygon fill="#fb8072" stroke="#000000" points="1050.897,-252 935.103,-252 935.103,-216 1050.897,-216 1050.897,-252"/>
<text text-anchor="middle" x="993" y="-229.8" font-family="Times,serif" font-size="14.00" fill="#000000">StateUserService </text>
</g>
<!-- UserModule&#45;&gt;StateUserService  -->
<g id="edge2" class="edge">
<title>UserModule&#45;&gt;StateUserService </title>
<path fill="none" stroke="#000000" stroke-dasharray="5,2" d="M643.2484,-175C734.5742,-175 938.761,-175 938.761,-175 938.761,-175 938.761,-205.9775 938.761,-205.9775"/>
<polygon fill="#000000" stroke="#000000" points="935.2611,-205.9774 938.761,-215.9775 942.2611,-205.9775 935.2611,-205.9774"/>
</g>
<!-- UserAdministratorService  -->
<g id="node4" class="node">
<title>UserAdministratorService </title>
<polygon fill="#fb8072" stroke="#000000" points="917.4446,-252 750.5554,-252 750.5554,-216 917.4446,-216 917.4446,-252"/>
<text text-anchor="middle" x="834" y="-229.8" font-family="Times,serif" font-size="14.00" fill="#000000">UserAdministratorService </text>
</g>
<!-- UserModule&#45;&gt;UserAdministratorService  -->
<g id="edge3" class="edge">
<title>UserModule&#45;&gt;UserAdministratorService </title>
<path fill="none" stroke="#000000" stroke-dasharray="5,2" d="M643.1919,-181C710.8049,-181 834,-181 834,-181 834,-181 834,-205.7604 834,-205.7604"/>
<polygon fill="#000000" stroke="#000000" points="830.5001,-205.7604 834,-215.7604 837.5001,-205.7604 830.5001,-205.7604"/>
</g>
<!-- UserClientService  -->
<g id="node5" class="node">
<title>UserClientService </title>
<polygon fill="#fb8072" stroke="#000000" points="733.1271,-252 610.8729,-252 610.8729,-216 733.1271,-216 733.1271,-252"/>
<text text-anchor="middle" x="672" y="-229.8" font-family="Times,serif" font-size="14.00" fill="#000000">UserClientService </text>
</g>
<!-- UserModule&#45;&gt;UserClientService  -->
<g id="edge4" class="edge">
<title>UserModule&#45;&gt;UserClientService </title>
<path fill="none" stroke="#000000" stroke-dasharray="5,2" d="M626.9623,-187.1061C626.9623,-187.1061 626.9623,-205.991 626.9623,-205.991"/>
<polygon fill="#000000" stroke="#000000" points="623.4624,-205.9909 626.9623,-215.991 630.4624,-205.991 623.4624,-205.9909"/>
</g>
<!-- UserDetailsService  -->
<g id="node6" class="node">
<title>UserDetailsService </title>
<polygon fill="#fb8072" stroke="#000000" points="592.557,-252 465.443,-252 465.443,-216 592.557,-216 592.557,-252"/>
<text text-anchor="middle" x="529" y="-229.8" font-family="Times,serif" font-size="14.00" fill="#000000">UserDetailsService </text>
</g>
<!-- UserModule&#45;&gt;UserDetailsService  -->
<g id="edge5" class="edge">
<title>UserModule&#45;&gt;UserDetailsService </title>
<path fill="none" stroke="#000000" stroke-dasharray="5,2" d="M574.895,-187.1061C574.895,-187.1061 574.895,-205.991 574.895,-205.991"/>
<polygon fill="#000000" stroke="#000000" points="571.3951,-205.9909 574.895,-215.991 578.3951,-205.991 571.3951,-205.9909"/>
</g>
<!-- UserRoleService  -->
<g id="node7" class="node">
<title>UserRoleService </title>
<polygon fill="#fb8072" stroke="#000000" points="447.3463,-252 332.6537,-252 332.6537,-216 447.3463,-216 447.3463,-252"/>
<text text-anchor="middle" x="390" y="-229.8" font-family="Times,serif" font-size="14.00" fill="#000000">UserRoleService </text>
</g>
<!-- UserModule&#45;&gt;UserRoleService  -->
<g id="edge6" class="edge">
<title>UserModule&#45;&gt;UserRoleService </title>
<path fill="none" stroke="#000000" stroke-dasharray="5,2" d="M556.9966,-181C495.5584,-181 390,-181 390,-181 390,-181 390,-205.7604 390,-205.7604"/>
<polygon fill="#000000" stroke="#000000" points="386.5001,-205.7604 390,-215.7604 393.5001,-205.7604 386.5001,-205.7604"/>
</g>
<!-- UserService  -->
<g id="node8" class="node">
<title>UserService </title>
<polygon fill="#fb8072" stroke="#000000" points="314.9041,-252 227.0959,-252 227.0959,-216 314.9041,-216 314.9041,-252"/>
<text text-anchor="middle" x="271" y="-229.8" font-family="Times,serif" font-size="14.00" fill="#000000">UserService </text>
</g>
<!-- UserModule&#45;&gt;UserService  -->
<g id="edge7" class="edge">
<title>UserModule&#45;&gt;UserService </title>
<path fill="none" stroke="#000000" stroke-dasharray="5,2" d="M556.9619,-175C470.3763,-175 283.3223,-175 283.3223,-175 283.3223,-175 283.3223,-205.9775 283.3223,-205.9775"/>
<polygon fill="#000000" stroke="#000000" points="279.8224,-205.9774 283.3223,-215.9775 286.8224,-205.9775 279.8224,-205.9774"/>
</g>
<!-- StateUserService -->
<g id="node9" class="node">
<title>StateUserService</title>
<ellipse fill="#fdb462" stroke="#000000" cx="1020" cy="-104" rx="77.5588" ry="18"/>
<text text-anchor="middle" x="1020" y="-99.8" font-family="Times,serif" font-size="14.00" fill="#000000">StateUserService</text>
</g>
<!-- StateUserService&#45;&gt;UserModule -->
<g id="edge8" class="edge">
<title>StateUserService&#45;&gt;UserModule</title>
<path fill="none" stroke="#000000" d="M996.7095,-121.3828C996.7095,-138.7864 996.7095,-163 996.7095,-163 996.7095,-163 653.2101,-163 653.2101,-163"/>
<polygon fill="#000000" stroke="#000000" points="653.2101,-159.5001 643.2101,-163 653.21,-166.5001 653.2101,-159.5001"/>
</g>
<!-- UserAdministratorService -->
<g id="node10" class="node">
<title>UserAdministratorService</title>
<ellipse fill="#fdb462" stroke="#000000" cx="812" cy="-104" rx="112.2917" ry="18"/>
<text text-anchor="middle" x="812" y="-99.8" font-family="Times,serif" font-size="14.00" fill="#000000">UserAdministratorService</text>
</g>
<!-- UserAdministratorService&#45;&gt;UserModule -->
<g id="edge9" class="edge">
<title>UserAdministratorService&#45;&gt;UserModule</title>
<path fill="none" stroke="#000000" d="M716.3339,-113.721C716.3339,-129.0217 716.3339,-157 716.3339,-157 716.3339,-157 652.9879,-157 652.9879,-157"/>
<polygon fill="#000000" stroke="#000000" points="652.9879,-153.5001 642.9879,-157 652.9879,-160.5001 652.9879,-153.5001"/>
</g>
<!-- UserClientService -->
<g id="node11" class="node">
<title>UserClientService</title>
<ellipse fill="#fdb462" stroke="#000000" cx="600" cy="-104" rx="81.6538" ry="18"/>
<text text-anchor="middle" x="600" y="-99.8" font-family="Times,serif" font-size="14.00" fill="#000000">UserClientService</text>
</g>
<!-- UserClientService&#45;&gt;UserModule -->
<g id="edge10" class="edge">
<title>UserClientService&#45;&gt;UserModule</title>
<path fill="none" stroke="#000000" d="M600,-122.1061C600,-122.1061 600,-140.991 600,-140.991"/>
<polygon fill="#000000" stroke="#000000" points="596.5001,-140.9909 600,-150.991 603.5001,-140.991 596.5001,-140.9909"/>
</g>
<!-- UserDetailsService -->
<g id="node12" class="node">
<title>UserDetailsService</title>
<ellipse fill="#fdb462" stroke="#000000" cx="415" cy="-104" rx="85.6435" ry="18"/>
<text text-anchor="middle" x="415" y="-99.8" font-family="Times,serif" font-size="14.00" fill="#000000">UserDetailsService</text>
</g>
<!-- UserDetailsService&#45;&gt;UserModule -->
<g id="edge11" class="edge">
<title>UserDetailsService&#45;&gt;UserModule</title>
<path fill="none" stroke="#000000" d="M482.8968,-114.9816C482.8968,-130.5057 482.8968,-157 482.8968,-157 482.8968,-157 546.7278,-157 546.7278,-157"/>
<polygon fill="#000000" stroke="#000000" points="546.7278,-160.5001 556.7278,-157 546.7278,-153.5001 546.7278,-160.5001"/>
</g>
<!-- UserRoleService -->
<g id="node13" class="node">
<title>UserRoleService</title>
<ellipse fill="#fdb462" stroke="#000000" cx="235" cy="-104" rx="76.4188" ry="18"/>
<text text-anchor="middle" x="235" y="-99.8" font-family="Times,serif" font-size="14.00" fill="#000000">UserRoleService</text>
</g>
<!-- UserRoleService&#45;&gt;UserModule -->
<g id="edge12" class="edge">
<title>UserRoleService&#45;&gt;UserModule</title>
<path fill="none" stroke="#000000" d="M255.1851,-121.3828C255.1851,-138.7864 255.1851,-163 255.1851,-163 255.1851,-163 546.6781,-163 546.6781,-163"/>
<polygon fill="#000000" stroke="#000000" points="546.6781,-166.5001 556.6781,-163 546.6781,-159.5001 546.6781,-166.5001"/>
</g>
<!-- UserService -->
<g id="node14" class="node">
<title>UserService</title>
<ellipse fill="#fdb462" stroke="#000000" cx="82" cy="-104" rx="58.4415" ry="18"/>
<text text-anchor="middle" x="82" y="-99.8" font-family="Times,serif" font-size="14.00" fill="#000000">UserService</text>
</g>
<!-- UserService&#45;&gt;UserModule -->
<g id="edge13" class="edge">
<title>UserService&#45;&gt;UserModule</title>
<path fill="none" stroke="#000000" d="M82,-122.1061C82,-141.3391 82,-169 82,-169 82,-169 546.7266,-169 546.7266,-169"/>
<polygon fill="#000000" stroke="#000000" points="546.7266,-172.5001 556.7266,-169 546.7265,-165.5001 546.7266,-172.5001"/>
</g>
</g>
</svg>
