<?xml version="1.0" encoding="UTF-8" standalone="no"?>
<!DOCTYPE svg PUBLIC "-//W3C//DTD SVG 1.1//EN"
 "http://www.w3.org/Graphics/SVG/1.1/DTD/svg11.dtd">
<!-- Generated by graphviz version 2.40.1 (20161225.0304)
 -->
<!-- Title: dependencies Pages: 1 -->
<svg width="504pt" height="211pt"
 viewBox="0.00 0.00 504.00 211.00" xmlns="http://www.w3.org/2000/svg" xmlns:xlink="http://www.w3.org/1999/xlink">
<g id="graph0" class="graph" transform="scale(1 1) rotate(0) translate(4 207)">
<title>dependencies</title>
<polygon fill="#ffffff" stroke="transparent" points="-4,4 -4,-207 500,-207 500,4 -4,4"/>
<text text-anchor="start" x="227.0091" y="-42.4" font-family="sans-serif" font-weight="bold" font-size="14.00" fill="#000000">Legend</text>
<polygon fill="#ffffb3" stroke="transparent" points="14,-10 14,-30 34,-30 34,-10 14,-10"/>
<text text-anchor="start" x="37.629" y="-15.4" font-family="sans-serif" font-size="14.00" fill="#000000"> &#160;Declarations</text>
<polygon fill="#8dd3c7" stroke="transparent" points="127,-10 127,-30 147,-30 147,-10 127,-10"/>
<text text-anchor="start" x="150.7251" y="-15.4" font-family="sans-serif" font-size="14.00" fill="#000000"> &#160;Module</text>
<polygon fill="#80b1d3" stroke="transparent" points="213,-10 213,-30 233,-30 233,-10 213,-10"/>
<text text-anchor="start" x="236.7812" y="-15.4" font-family="sans-serif" font-size="14.00" fill="#000000"> &#160;Bootstrap</text>
<polygon fill="#fdb462" stroke="transparent" points="310,-10 310,-30 330,-30 330,-10 310,-10"/>
<text text-anchor="start" x="333.6732" y="-15.4" font-family="sans-serif" font-size="14.00" fill="#000000"> &#160;Providers</text>
<polygon fill="#fb8072" stroke="transparent" points="406,-10 406,-30 426,-30 426,-10 406,-10"/>
<text text-anchor="start" x="429.7258" y="-15.4" font-family="sans-serif" font-size="14.00" fill="#000000"> &#160;Exports</text>
<g id="clust1" class="cluster">
<title>cluster_LanguageModule</title>
<polygon fill="none" stroke="#000000" stroke-dasharray="1,5" points="72,-70 72,-195 424,-195 424,-70 72,-70"/>
</g>
<g id="clust6" class="cluster">
<title>cluster_LanguageModule_providers</title>
<polygon fill="none" stroke="#000000" points="80,-78 80,-130 416,-130 416,-78 80,-78"/>
</g>
<!-- LanguageService -->
<g id="node1" class="node">
<title>LanguageService</title>
<ellipse fill="#fdb462" stroke="#000000" cx="330" cy="-104" rx="78.1308" ry="18"/>
<text text-anchor="middle" x="330" y="-99.8" font-family="Times,serif" font-size="14.00" fill="#000000">LanguageService</text>
</g>
<!-- LanguageModule -->
<g id="node3" class="node">
<title>LanguageModule</title>
<polygon fill="#8dd3c7" stroke="#000000" points="302.2465,-187 299.2465,-191 278.2465,-191 275.2465,-187 187.7535,-187 187.7535,-151 302.2465,-151 302.2465,-187"/>
<text text-anchor="middle" x="245" y="-164.8" font-family="Times,serif" font-size="14.00" fill="#000000">LanguageModule</text>
</g>
<!-- LanguageService&#45;&gt;LanguageModule -->
<g id="edge1" class="edge">
<title>LanguageService&#45;&gt;LanguageModule</title>
<path fill="none" stroke="#000000" d="M277.1539,-117.468C277.1539,-117.468 277.1539,-140.8642 277.1539,-140.8642"/>
<polygon fill="#000000" stroke="#000000" points="273.654,-140.8641 277.1539,-150.8642 280.654,-140.8642 273.654,-140.8641"/>
</g>
<!-- PoeditorService -->
<g id="node2" class="node">
<title>PoeditorService</title>
<ellipse fill="#fdb462" stroke="#000000" cx="161" cy="-104" rx="72.9295" ry="18"/>
<text text-anchor="middle" x="161" y="-99.8" font-family="Times,serif" font-size="14.00" fill="#000000">PoeditorService</text>
</g>
<!-- PoeditorService&#45;&gt;LanguageModule -->
<g id="edge2" class="edge">
<title>PoeditorService&#45;&gt;LanguageModule</title>
<path fill="none" stroke="#000000" d="M210.6707,-117.1537C210.6707,-117.1537 210.6707,-140.6938 210.6707,-140.6938"/>
<polygon fill="#000000" stroke="#000000" points="207.1708,-140.6938 210.6707,-150.6938 214.1708,-140.6939 207.1708,-140.6938"/>
</g>
</g>
</svg>
