<?xml version="1.0" encoding="UTF-8" standalone="no"?>
<!DOCTYPE svg PUBLIC "-//W3C//DTD SVG 1.1//EN"
 "http://www.w3.org/Graphics/SVG/1.1/DTD/svg11.dtd">
<!-- Generated by graphviz version 2.40.1 (20161225.0304)
 -->
<!-- Title: dependencies Pages: 1 -->
<svg width="504pt" height="284pt"
 viewBox="0.00 0.00 504.00 284.00" xmlns="http://www.w3.org/2000/svg" xmlns:xlink="http://www.w3.org/1999/xlink">
<g id="graph0" class="graph" transform="scale(1 1) rotate(0) translate(4 280)">
<title>dependencies</title>
<polygon fill="#ffffff" stroke="transparent" points="-4,4 -4,-280 500,-280 500,4 -4,4"/>
<text text-anchor="start" x="227.0091" y="-42.4" font-family="sans-serif" font-weight="bold" font-size="14.00" fill="#000000">Legend</text>
<polygon fill="#ffffb3" stroke="transparent" points="14,-10 14,-30 34,-30 34,-10 14,-10"/>
<text text-anchor="start" x="37.629" y="-15.4" font-family="sans-serif" font-size="14.00" fill="#000000"> &#160;Declarations</text>
<polygon fill="#8dd3c7" stroke="transparent" points="127,-10 127,-30 147,-30 147,-10 127,-10"/>
<text text-anchor="start" x="150.7251" y="-15.4" font-family="sans-serif" font-size="14.00" fill="#000000"> &#160;Module</text>
<polygon fill="#80b1d3" stroke="transparent" points="213,-10 213,-30 233,-30 233,-10 213,-10"/>
<text text-anchor="start" x="236.7812" y="-15.4" font-family="sans-serif" font-size="14.00" fill="#000000"> &#160;Bootstrap</text>
<polygon fill="#fdb462" stroke="transparent" points="310,-10 310,-30 330,-30 330,-10 310,-10"/>
<text text-anchor="start" x="333.6732" y="-15.4" font-family="sans-serif" font-size="14.00" fill="#000000"> &#160;Providers</text>
<polygon fill="#fb8072" stroke="transparent" points="406,-10 406,-30 426,-30 426,-10 406,-10"/>
<text text-anchor="start" x="429.7258" y="-15.4" font-family="sans-serif" font-size="14.00" fill="#000000"> &#160;Exports</text>
<g id="clust1" class="cluster">
<title>cluster_ThirdPartyInterestSeederModule</title>
<polygon fill="none" stroke="#000000" stroke-dasharray="1,5" points="95,-70 95,-268 401,-268 401,-70 95,-70"/>
</g>
<g id="clust4" class="cluster">
<title>cluster_ThirdPartyInterestSeederModule_exports</title>
<polygon fill="none" stroke="#000000" points="139,-208 139,-260 357,-260 357,-208 139,-208"/>
</g>
<g id="clust6" class="cluster">
<title>cluster_ThirdPartyInterestSeederModule_providers</title>
<polygon fill="none" stroke="#000000" points="103,-78 103,-130 393,-130 393,-78 103,-78"/>
</g>
<!-- ThirdPartyInterestSeederService  -->
<g id="node1" class="node">
<title>ThirdPartyInterestSeederService </title>
<polygon fill="#fb8072" stroke="#000000" points="349.1931,-252 146.8069,-252 146.8069,-216 349.1931,-216 349.1931,-252"/>
<text text-anchor="middle" x="248" y="-229.8" font-family="Times,serif" font-size="14.00" fill="#000000">ThirdPartyInterestSeederService </text>
</g>
<!-- ThirdPartyInterestSeederModule -->
<g id="node2" class="node">
<title>ThirdPartyInterestSeederModule</title>
<polygon fill="#8dd3c7" stroke="#000000" points="348.2654,-187 345.2654,-191 324.2654,-191 321.2654,-187 147.7346,-187 147.7346,-151 348.2654,-151 348.2654,-187"/>
<text text-anchor="middle" x="248" y="-164.8" font-family="Times,serif" font-size="14.00" fill="#000000">ThirdPartyInterestSeederModule</text>
</g>
<!-- ThirdPartyInterestSeederModule&#45;&gt;ThirdPartyInterestSeederService  -->
<g id="edge1" class="edge">
<title>ThirdPartyInterestSeederModule&#45;&gt;ThirdPartyInterestSeederService </title>
<path fill="none" stroke="#000000" stroke-dasharray="5,2" d="M248,-187.1061C248,-187.1061 248,-205.991 248,-205.991"/>
<polygon fill="#000000" stroke="#000000" points="244.5001,-205.9909 248,-215.991 251.5001,-205.991 244.5001,-205.9909"/>
</g>
<!-- ThirdPartyInterestSeederService -->
<g id="node3" class="node">
<title>ThirdPartyInterestSeederService</title>
<ellipse fill="#fdb462" stroke="#000000" cx="248" cy="-104" rx="137.1096" ry="18"/>
<text text-anchor="middle" x="248" y="-99.8" font-family="Times,serif" font-size="14.00" fill="#000000">ThirdPartyInterestSeederService</text>
</g>
<!-- ThirdPartyInterestSeederService&#45;&gt;ThirdPartyInterestSeederModule -->
<g id="edge2" class="edge">
<title>ThirdPartyInterestSeederService&#45;&gt;ThirdPartyInterestSeederModule</title>
<path fill="none" stroke="#000000" d="M248,-122.1061C248,-122.1061 248,-140.991 248,-140.991"/>
<polygon fill="#000000" stroke="#000000" points="244.5001,-140.9909 248,-150.991 251.5001,-140.991 244.5001,-140.9909"/>
</g>
</g>
</svg>
