<?xml version="1.0" encoding="UTF-8" standalone="no"?>
<!DOCTYPE svg PUBLIC "-//W3C//DTD SVG 1.1//EN"
 "http://www.w3.org/Graphics/SVG/1.1/DTD/svg11.dtd">
<!-- Generated by graphviz version 2.40.1 (20161225.0304)
 -->
<!-- Title: dependencies Pages: 1 -->
<svg width="504pt" height="284pt"
 viewBox="0.00 0.00 504.00 284.00" xmlns="http://www.w3.org/2000/svg" xmlns:xlink="http://www.w3.org/1999/xlink">
<g id="graph0" class="graph" transform="scale(1 1) rotate(0) translate(4 280)">
<title>dependencies</title>
<polygon fill="#ffffff" stroke="transparent" points="-4,4 -4,-280 500,-280 500,4 -4,4"/>
<text text-anchor="start" x="227.0091" y="-42.4" font-family="sans-serif" font-weight="bold" font-size="14.00" fill="#000000">Legend</text>
<polygon fill="#ffffb3" stroke="transparent" points="14,-10 14,-30 34,-30 34,-10 14,-10"/>
<text text-anchor="start" x="37.629" y="-15.4" font-family="sans-serif" font-size="14.00" fill="#000000"> &#160;Declarations</text>
<polygon fill="#8dd3c7" stroke="transparent" points="127,-10 127,-30 147,-30 147,-10 127,-10"/>
<text text-anchor="start" x="150.7251" y="-15.4" font-family="sans-serif" font-size="14.00" fill="#000000"> &#160;Module</text>
<polygon fill="#80b1d3" stroke="transparent" points="213,-10 213,-30 233,-30 233,-10 213,-10"/>
<text text-anchor="start" x="236.7812" y="-15.4" font-family="sans-serif" font-size="14.00" fill="#000000"> &#160;Bootstrap</text>
<polygon fill="#fdb462" stroke="transparent" points="310,-10 310,-30 330,-30 330,-10 310,-10"/>
<text text-anchor="start" x="333.6732" y="-15.4" font-family="sans-serif" font-size="14.00" fill="#000000"> &#160;Providers</text>
<polygon fill="#fb8072" stroke="transparent" points="406,-10 406,-30 426,-30 426,-10 406,-10"/>
<text text-anchor="start" x="429.7258" y="-15.4" font-family="sans-serif" font-size="14.00" fill="#000000"> &#160;Exports</text>
<g id="clust1" class="cluster">
<title>cluster_ClientModule</title>
<polygon fill="none" stroke="#000000" stroke-dasharray="1,5" points="95,-70 95,-268 401,-268 401,-70 95,-70"/>
</g>
<g id="clust3" class="cluster">
<title>cluster_ClientModule_imports</title>
<polygon fill="none" stroke="#000000" points="291,-78 291,-130 393,-130 393,-78 291,-78"/>
</g>
<g id="clust4" class="cluster">
<title>cluster_ClientModule_exports</title>
<polygon fill="none" stroke="#000000" points="189,-208 189,-260 327,-260 327,-208 189,-208"/>
</g>
<g id="clust6" class="cluster">
<title>cluster_ClientModule_providers</title>
<polygon fill="none" stroke="#000000" points="103,-78 103,-130 283,-130 283,-78 103,-78"/>
</g>
<!-- UserModule -->
<g id="node1" class="node">
<title>UserModule</title>
<polygon fill="#8dd3c7" stroke="#000000" points="384.9762,-122 381.9762,-126 360.9762,-126 357.9762,-122 299.0238,-122 299.0238,-86 384.9762,-86 384.9762,-122"/>
<text text-anchor="middle" x="342" y="-99.8" font-family="Times,serif" font-size="14.00" fill="#000000">UserModule</text>
</g>
<!-- ClientModule -->
<g id="node2" class="node">
<title>ClientModule</title>
<polygon fill="#8dd3c7" stroke="#000000" points="304.7731,-187 301.7731,-191 280.7731,-191 277.7731,-187 211.2269,-187 211.2269,-151 304.7731,-151 304.7731,-187"/>
<text text-anchor="middle" x="258" y="-164.8" font-family="Times,serif" font-size="14.00" fill="#000000">ClientModule</text>
</g>
<!-- UserModule&#45;&gt;ClientModule -->
<g id="edge1" class="edge">
<title>UserModule&#45;&gt;ClientModule</title>
<path fill="none" stroke="#000000" d="M311.975,-122.1061C311.975,-141.3391 311.975,-169 311.975,-169 311.975,-169 311.2693,-169 311.2693,-169"/>
<polygon fill="#000000" stroke="#000000" points="314.9187,-165.5002 304.9187,-169 314.9186,-172.5002 314.9187,-165.5002"/>
</g>
<!-- UserClientService  -->
<g id="node3" class="node">
<title>UserClientService </title>
<polygon fill="#fb8072" stroke="#000000" points="319.1271,-252 196.8729,-252 196.8729,-216 319.1271,-216 319.1271,-252"/>
<text text-anchor="middle" x="258" y="-229.8" font-family="Times,serif" font-size="14.00" fill="#000000">UserClientService </text>
</g>
<!-- ClientModule&#45;&gt;UserClientService  -->
<g id="edge2" class="edge">
<title>ClientModule&#45;&gt;UserClientService </title>
<path fill="none" stroke="#000000" stroke-dasharray="5,2" d="M258,-187.1061C258,-187.1061 258,-205.991 258,-205.991"/>
<polygon fill="#000000" stroke="#000000" points="254.5001,-205.9909 258,-215.991 261.5001,-205.991 254.5001,-205.9909"/>
</g>
<!-- UserClientService -->
<g id="node4" class="node">
<title>UserClientService</title>
<ellipse fill="#fdb462" stroke="#000000" cx="193" cy="-104" rx="81.6538" ry="18"/>
<text text-anchor="middle" x="193" y="-99.8" font-family="Times,serif" font-size="14.00" fill="#000000">UserClientService</text>
</g>
<!-- UserClientService&#45;&gt;ClientModule -->
<g id="edge3" class="edge">
<title>UserClientService&#45;&gt;ClientModule</title>
<path fill="none" stroke="#000000" d="M242.9702,-118.4256C242.9702,-118.4256 242.9702,-140.8939 242.9702,-140.8939"/>
<polygon fill="#000000" stroke="#000000" points="239.4703,-140.8938 242.9702,-150.8939 246.4703,-140.8939 239.4703,-140.8938"/>
</g>
</g>
</svg>
