<?xml version="1.0" encoding="UTF-8" standalone="no"?>
<!DOCTYPE svg PUBLIC "-//W3C//DTD SVG 1.1//EN"
 "http://www.w3.org/Graphics/SVG/1.1/DTD/svg11.dtd">
<!-- Generated by graphviz version 2.40.1 (20161225.0304)
 -->
<!-- Title: dependencies Pages: 1 -->
<svg width="1085pt" height="284pt"
 viewBox="0.00 0.00 1085.00 284.00" xmlns="http://www.w3.org/2000/svg" xmlns:xlink="http://www.w3.org/1999/xlink">
<g id="graph0" class="graph" transform="scale(1 1) rotate(0) translate(4 280)">
<title>dependencies</title>
<polygon fill="#ffffff" stroke="transparent" points="-4,4 -4,-280 1081,-280 1081,4 -4,4"/>
<text text-anchor="start" x="517.5091" y="-42.4" font-family="sans-serif" font-weight="bold" font-size="14.00" fill="#000000">Legend</text>
<polygon fill="#ffffb3" stroke="transparent" points="304.5,-10 304.5,-30 324.5,-30 324.5,-10 304.5,-10"/>
<text text-anchor="start" x="328.129" y="-15.4" font-family="sans-serif" font-size="14.00" fill="#000000"> &#160;Declarations</text>
<polygon fill="#8dd3c7" stroke="transparent" points="417.5,-10 417.5,-30 437.5,-30 437.5,-10 417.5,-10"/>
<text text-anchor="start" x="441.2251" y="-15.4" font-family="sans-serif" font-size="14.00" fill="#000000"> &#160;Module</text>
<polygon fill="#80b1d3" stroke="transparent" points="503.5,-10 503.5,-30 523.5,-30 523.5,-10 503.5,-10"/>
<text text-anchor="start" x="527.2812" y="-15.4" font-family="sans-serif" font-size="14.00" fill="#000000"> &#160;Bootstrap</text>
<polygon fill="#fdb462" stroke="transparent" points="600.5,-10 600.5,-30 620.5,-30 620.5,-10 600.5,-10"/>
<text text-anchor="start" x="624.1732" y="-15.4" font-family="sans-serif" font-size="14.00" fill="#000000"> &#160;Providers</text>
<polygon fill="#fb8072" stroke="transparent" points="696.5,-10 696.5,-30 716.5,-30 716.5,-10 696.5,-10"/>
<text text-anchor="start" x="720.2258" y="-15.4" font-family="sans-serif" font-size="14.00" fill="#000000"> &#160;Exports</text>
<g id="clust1" class="cluster">
<title>cluster_ClientModule</title>
<polygon fill="none" stroke="#000000" stroke-dasharray="1,5" points="8,-70 8,-268 1069,-268 1069,-70 8,-70"/>
</g>
<g id="clust3" class="cluster">
<title>cluster_ClientModule_imports</title>
<polygon fill="none" stroke="#000000" points="456,-78 456,-130 1061,-130 1061,-78 456,-78"/>
</g>
<g id="clust4" class="cluster">
<title>cluster_ClientModule_exports</title>
<polygon fill="none" stroke="#000000" points="500,-208 500,-260 638,-260 638,-208 500,-208"/>
</g>
<g id="clust6" class="cluster">
<title>cluster_ClientModule_providers</title>
<polygon fill="none" stroke="#000000" points="16,-78 16,-130 448,-130 448,-78 16,-78"/>
</g>
<!-- BankAccountModule -->
<g id="node1" class="node">
<title>BankAccountModule</title>
<polygon fill="#8dd3c7" stroke="#000000" points="1053.0282,-122 1050.0282,-126 1029.0282,-126 1026.0282,-122 916.9718,-122 916.9718,-86 1053.0282,-86 1053.0282,-122"/>
<text text-anchor="middle" x="985" y="-99.8" font-family="Times,serif" font-size="14.00" fill="#000000">BankAccountModule</text>
</g>
<!-- ClientModule -->
<g id="node5" class="node">
<title>ClientModule</title>
<polygon fill="#8dd3c7" stroke="#000000" points="615.7731,-187 612.7731,-191 591.7731,-191 588.7731,-187 522.2269,-187 522.2269,-151 615.7731,-151 615.7731,-187"/>
<text text-anchor="middle" x="569" y="-164.8" font-family="Times,serif" font-size="14.00" fill="#000000">ClientModule</text>
</g>
<!-- BankAccountModule&#45;&gt;ClientModule -->
<g id="edge1" class="edge">
<title>BankAccountModule&#45;&gt;ClientModule</title>
<path fill="none" stroke="#000000" d="M985,-122.2843C985,-143.3211 985,-175 985,-175 985,-175 625.9118,-175 625.9118,-175"/>
<polygon fill="#000000" stroke="#000000" points="625.9119,-171.5001 615.9118,-175 625.9118,-178.5001 625.9119,-171.5001"/>
</g>
<!-- PlatformAdministratorModule -->
<g id="node2" class="node">
<title>PlatformAdministratorModule</title>
<polygon fill="#8dd3c7" stroke="#000000" points="898.58,-122 895.58,-126 874.58,-126 871.58,-122 711.42,-122 711.42,-86 898.58,-86 898.58,-122"/>
<text text-anchor="middle" x="805" y="-99.8" font-family="Times,serif" font-size="14.00" fill="#000000">PlatformAdministratorModule</text>
</g>
<!-- PlatformAdministratorModule&#45;&gt;ClientModule -->
<g id="edge2" class="edge">
<title>PlatformAdministratorModule&#45;&gt;ClientModule</title>
<path fill="none" stroke="#000000" d="M805,-122.0225C805,-139.3734 805,-163 805,-163 805,-163 625.9082,-163 625.9082,-163"/>
<polygon fill="#000000" stroke="#000000" points="625.9082,-159.5001 615.9082,-163 625.9081,-166.5001 625.9082,-159.5001"/>
</g>
<!-- TransactionModule -->
<g id="node3" class="node">
<title>TransactionModule</title>
<polygon fill="#8dd3c7" stroke="#000000" points="693.6331,-122 690.6331,-126 669.6331,-126 666.6331,-122 568.3669,-122 568.3669,-86 693.6331,-86 693.6331,-122"/>
<text text-anchor="middle" x="631" y="-99.8" font-family="Times,serif" font-size="14.00" fill="#000000">TransactionModule</text>
</g>
<!-- TransactionModule&#45;&gt;ClientModule -->
<g id="edge3" class="edge">
<title>TransactionModule&#45;&gt;ClientModule</title>
<path fill="none" stroke="#000000" d="M592.0351,-122.1061C592.0351,-122.1061 592.0351,-140.991 592.0351,-140.991"/>
<polygon fill="#000000" stroke="#000000" points="588.5351,-140.9909 592.0351,-150.991 595.5351,-140.991 588.5351,-140.9909"/>
</g>
<!-- UserModule -->
<g id="node4" class="node">
<title>UserModule</title>
<polygon fill="#8dd3c7" stroke="#000000" points="549.9762,-122 546.9762,-126 525.9762,-126 522.9762,-122 464.0238,-122 464.0238,-86 549.9762,-86 549.9762,-122"/>
<text text-anchor="middle" x="507" y="-99.8" font-family="Times,serif" font-size="14.00" fill="#000000">UserModule</text>
</g>
<!-- UserModule&#45;&gt;ClientModule -->
<g id="edge4" class="edge">
<title>UserModule&#45;&gt;ClientModule</title>
<path fill="none" stroke="#000000" d="M536.0509,-122.1061C536.0509,-122.1061 536.0509,-140.991 536.0509,-140.991"/>
<polygon fill="#000000" stroke="#000000" points="532.5509,-140.9909 536.0509,-150.991 539.5509,-140.991 532.5509,-140.9909"/>
</g>
<!-- UserClientService  -->
<g id="node6" class="node">
<title>UserClientService </title>
<polygon fill="#fb8072" stroke="#000000" points="630.1271,-252 507.8729,-252 507.8729,-216 630.1271,-216 630.1271,-252"/>
<text text-anchor="middle" x="569" y="-229.8" font-family="Times,serif" font-size="14.00" fill="#000000">UserClientService </text>
</g>
<!-- ClientModule&#45;&gt;UserClientService  -->
<g id="edge5" class="edge">
<title>ClientModule&#45;&gt;UserClientService </title>
<path fill="none" stroke="#000000" stroke-dasharray="5,2" d="M569,-187.1061C569,-187.1061 569,-205.991 569,-205.991"/>
<polygon fill="#000000" stroke="#000000" points="565.5001,-205.9909 569,-215.991 572.5001,-205.991 565.5001,-205.9909"/>
</g>
<!-- ClientBankAccountService -->
<g id="node7" class="node">
<title>ClientBankAccountService</title>
<ellipse fill="#fdb462" stroke="#000000" cx="323" cy="-104" rx="116.8924" ry="18"/>
<text text-anchor="middle" x="323" y="-99.8" font-family="Times,serif" font-size="14.00" fill="#000000">ClientBankAccountService</text>
</g>
<!-- ClientBankAccountService&#45;&gt;ClientModule -->
<g id="edge6" class="edge">
<title>ClientBankAccountService&#45;&gt;ClientModule</title>
<path fill="none" stroke="#000000" d="M323,-122.0225C323,-139.3734 323,-163 323,-163 323,-163 512.1502,-163 512.1502,-163"/>
<polygon fill="#000000" stroke="#000000" points="512.1503,-166.5001 522.1502,-163 512.1502,-159.5001 512.1503,-166.5001"/>
</g>
<!-- UserClientService -->
<g id="node8" class="node">
<title>UserClientService</title>
<ellipse fill="#fdb462" stroke="#000000" cx="106" cy="-104" rx="81.6538" ry="18"/>
<text text-anchor="middle" x="106" y="-99.8" font-family="Times,serif" font-size="14.00" fill="#000000">UserClientService</text>
</g>
<!-- UserClientService&#45;&gt;ClientModule -->
<g id="edge7" class="edge">
<title>UserClientService&#45;&gt;ClientModule</title>
<path fill="none" stroke="#000000" d="M106,-122.2843C106,-143.3211 106,-175 106,-175 106,-175 512.0571,-175 512.0571,-175"/>
<polygon fill="#000000" stroke="#000000" points="512.0572,-178.5001 522.0571,-175 512.0571,-171.5001 512.0572,-178.5001"/>
</g>
</g>
</svg>
