<?xml version="1.0" encoding="UTF-8" standalone="no"?>
<!DOCTYPE svg PUBLIC "-//W3C//DTD SVG 1.1//EN"
 "http://www.w3.org/Graphics/SVG/1.1/DTD/svg11.dtd">
<!-- Generated by graphviz version 2.40.1 (20161225.0304)
 -->
<!-- Title: dependencies Pages: 1 -->
<svg width="1277pt" height="284pt"
 viewBox="0.00 0.00 1277.00 284.00" xmlns="http://www.w3.org/2000/svg" xmlns:xlink="http://www.w3.org/1999/xlink">
<g id="graph0" class="graph" transform="scale(1 1) rotate(0) translate(4 280)">
<title>dependencies</title>
<polygon fill="#ffffff" stroke="transparent" points="-4,4 -4,-280 1273,-280 1273,4 -4,4"/>
<text text-anchor="start" x="613.5091" y="-42.4" font-family="sans-serif" font-weight="bold" font-size="14.00" fill="#000000">Legend</text>
<polygon fill="#ffffb3" stroke="transparent" points="400.5,-10 400.5,-30 420.5,-30 420.5,-10 400.5,-10"/>
<text text-anchor="start" x="424.129" y="-15.4" font-family="sans-serif" font-size="14.00" fill="#000000"> &#160;Declarations</text>
<polygon fill="#8dd3c7" stroke="transparent" points="513.5,-10 513.5,-30 533.5,-30 533.5,-10 513.5,-10"/>
<text text-anchor="start" x="537.2251" y="-15.4" font-family="sans-serif" font-size="14.00" fill="#000000"> &#160;Module</text>
<polygon fill="#80b1d3" stroke="transparent" points="599.5,-10 599.5,-30 619.5,-30 619.5,-10 599.5,-10"/>
<text text-anchor="start" x="623.2812" y="-15.4" font-family="sans-serif" font-size="14.00" fill="#000000"> &#160;Bootstrap</text>
<polygon fill="#fdb462" stroke="transparent" points="696.5,-10 696.5,-30 716.5,-30 716.5,-10 696.5,-10"/>
<text text-anchor="start" x="720.1732" y="-15.4" font-family="sans-serif" font-size="14.00" fill="#000000"> &#160;Providers</text>
<polygon fill="#fb8072" stroke="transparent" points="792.5,-10 792.5,-30 812.5,-30 812.5,-10 792.5,-10"/>
<text text-anchor="start" x="816.2258" y="-15.4" font-family="sans-serif" font-size="14.00" fill="#000000"> &#160;Exports</text>
<g id="clust1" class="cluster">
<title>cluster_BankAccountModule</title>
<polygon fill="none" stroke="#000000" stroke-dasharray="1,5" points="8,-70 8,-268 1261,-268 1261,-70 8,-70"/>
</g>
<g id="clust3" class="cluster">
<title>cluster_BankAccountModule_imports</title>
<polygon fill="none" stroke="#000000" points="857,-78 857,-130 1253,-130 1253,-78 857,-78"/>
</g>
<g id="clust4" class="cluster">
<title>cluster_BankAccountModule_exports</title>
<polygon fill="none" stroke="#000000" points="469,-208 469,-260 999,-260 999,-208 469,-208"/>
</g>
<g id="clust6" class="cluster">
<title>cluster_BankAccountModule_providers</title>
<polygon fill="none" stroke="#000000" points="16,-78 16,-130 849,-130 849,-78 16,-78"/>
</g>
<!-- ManagementModule -->
<g id="node1" class="node">
<title>ManagementModule</title>
<polygon fill="#8dd3c7" stroke="#000000" points="1245.1345,-122 1242.1345,-126 1221.1345,-126 1218.1345,-122 1112.8655,-122 1112.8655,-86 1245.1345,-86 1245.1345,-122"/>
<text text-anchor="middle" x="1179" y="-99.8" font-family="Times,serif" font-size="14.00" fill="#000000">ManagementModule</text>
</g>
<!-- BankAccountModule -->
<g id="node4" class="node">
<title>BankAccountModule</title>
<polygon fill="#8dd3c7" stroke="#000000" points="816.0282,-187 813.0282,-191 792.0282,-191 789.0282,-187 679.9718,-187 679.9718,-151 816.0282,-151 816.0282,-187"/>
<text text-anchor="middle" x="748" y="-164.8" font-family="Times,serif" font-size="14.00" fill="#000000">BankAccountModule</text>
</g>
<!-- ManagementModule&#45;&gt;BankAccountModule -->
<g id="edge1" class="edge">
<title>ManagementModule&#45;&gt;BankAccountModule</title>
<path fill="none" stroke="#000000" d="M1179,-122.1289C1179,-142.5724 1179,-173 1179,-173 1179,-173 826.2932,-173 826.2932,-173"/>
<polygon fill="#000000" stroke="#000000" points="826.2933,-169.5001 816.2932,-173 826.2932,-176.5001 826.2933,-169.5001"/>
</g>
<!-- TransactionModule -->
<g id="node2" class="node">
<title>TransactionModule</title>
<polygon fill="#8dd3c7" stroke="#000000" points="1094.6331,-122 1091.6331,-126 1070.6331,-126 1067.6331,-122 969.3669,-122 969.3669,-86 1094.6331,-86 1094.6331,-122"/>
<text text-anchor="middle" x="1032" y="-99.8" font-family="Times,serif" font-size="14.00" fill="#000000">TransactionModule</text>
</g>
<!-- TransactionModule&#45;&gt;BankAccountModule -->
<g id="edge2" class="edge">
<title>TransactionModule&#45;&gt;BankAccountModule</title>
<path fill="none" stroke="#000000" d="M980.2057,-122.2667C980.2057,-140.5552 980.2057,-166 980.2057,-166 980.2057,-166 826.1004,-166 826.1004,-166"/>
<polygon fill="#000000" stroke="#000000" points="826.1004,-162.5001 816.1004,-166 826.1003,-169.5001 826.1004,-162.5001"/>
</g>
<!-- UserModule -->
<g id="node3" class="node">
<title>UserModule</title>
<polygon fill="#8dd3c7" stroke="#000000" points="950.9762,-122 947.9762,-126 926.9762,-126 923.9762,-122 865.0238,-122 865.0238,-86 950.9762,-86 950.9762,-122"/>
<text text-anchor="middle" x="908" y="-99.8" font-family="Times,serif" font-size="14.00" fill="#000000">UserModule</text>
</g>
<!-- UserModule&#45;&gt;BankAccountModule -->
<g id="edge3" class="edge">
<title>UserModule&#45;&gt;BankAccountModule</title>
<path fill="none" stroke="#000000" d="M908,-122.0091C908,-138.0494 908,-159 908,-159 908,-159 826.3185,-159 826.3185,-159"/>
<polygon fill="#000000" stroke="#000000" points="826.3185,-155.5001 816.3185,-159 826.3185,-162.5001 826.3185,-155.5001"/>
</g>
<!-- BankAccountService  -->
<g id="node5" class="node">
<title>BankAccountService </title>
<polygon fill="#fb8072" stroke="#000000" points="991.456,-252 852.544,-252 852.544,-216 991.456,-216 991.456,-252"/>
<text text-anchor="middle" x="922" y="-229.8" font-family="Times,serif" font-size="14.00" fill="#000000">BankAccountService </text>
</g>
<!-- BankAccountModule&#45;&gt;BankAccountService  -->
<g id="edge4" class="edge">
<title>BankAccountModule&#45;&gt;BankAccountService </title>
<path fill="none" stroke="#000000" stroke-dasharray="5,2" d="M816.3355,-180C839.1557,-180 858.8922,-180 858.8922,-180 858.8922,-180 858.8922,-205.7181 858.8922,-205.7181"/>
<polygon fill="#000000" stroke="#000000" points="855.3922,-205.718 858.8922,-215.7181 862.3922,-205.7181 855.3922,-205.718"/>
</g>
<!-- ClientBankAccountService  -->
<g id="node6" class="node">
<title>ClientBankAccountService </title>
<polygon fill="#fb8072" stroke="#000000" points="834.1785,-252 661.8215,-252 661.8215,-216 834.1785,-216 834.1785,-252"/>
<text text-anchor="middle" x="748" y="-229.8" font-family="Times,serif" font-size="14.00" fill="#000000">ClientBankAccountService </text>
</g>
<!-- BankAccountModule&#45;&gt;ClientBankAccountService  -->
<g id="edge5" class="edge">
<title>BankAccountModule&#45;&gt;ClientBankAccountService </title>
<path fill="none" stroke="#000000" stroke-dasharray="5,2" d="M748,-187.1061C748,-187.1061 748,-205.991 748,-205.991"/>
<polygon fill="#000000" stroke="#000000" points="744.5001,-205.9909 748,-215.991 751.5001,-205.991 744.5001,-205.9909"/>
</g>
<!-- StateBankAccountService  -->
<g id="node7" class="node">
<title>StateBankAccountService </title>
<polygon fill="#fb8072" stroke="#000000" points="643.4488,-252 476.5512,-252 476.5512,-216 643.4488,-216 643.4488,-252"/>
<text text-anchor="middle" x="560" y="-229.8" font-family="Times,serif" font-size="14.00" fill="#000000">StateBankAccountService </text>
</g>
<!-- BankAccountModule&#45;&gt;StateBankAccountService  -->
<g id="edge6" class="edge">
<title>BankAccountModule&#45;&gt;StateBankAccountService </title>
<path fill="none" stroke="#000000" stroke-dasharray="5,2" d="M679.6203,-180C634.3937,-180 583.3893,-180 583.3893,-180 583.3893,-180 583.3893,-205.7181 583.3893,-205.7181"/>
<polygon fill="#000000" stroke="#000000" points="579.8894,-205.718 583.3893,-215.7181 586.8894,-205.7181 579.8894,-205.718"/>
</g>
<!-- BankAccountService -->
<g id="node8" class="node">
<title>BankAccountService</title>
<ellipse fill="#fdb462" stroke="#000000" cx="748" cy="-104" rx="93.1794" ry="18"/>
<text text-anchor="middle" x="748" y="-99.8" font-family="Times,serif" font-size="14.00" fill="#000000">BankAccountService</text>
</g>
<!-- BankAccountService&#45;&gt;BankAccountModule -->
<g id="edge7" class="edge">
<title>BankAccountService&#45;&gt;BankAccountModule</title>
<path fill="none" stroke="#000000" d="M748,-122.1061C748,-122.1061 748,-140.991 748,-140.991"/>
<polygon fill="#000000" stroke="#000000" points="744.5001,-140.9909 748,-150.991 751.5001,-140.991 744.5001,-140.9909"/>
</g>
<!-- ClientBankAccountService -->
<g id="node9" class="node">
<title>ClientBankAccountService</title>
<ellipse fill="#fdb462" stroke="#000000" cx="520" cy="-104" rx="116.8924" ry="18"/>
<text text-anchor="middle" x="520" y="-99.8" font-family="Times,serif" font-size="14.00" fill="#000000">ClientBankAccountService</text>
</g>
<!-- ClientBankAccountService&#45;&gt;BankAccountModule -->
<g id="edge8" class="edge">
<title>ClientBankAccountService&#45;&gt;BankAccountModule</title>
<path fill="none" stroke="#000000" d="M530.0826,-122.0091C530.0826,-138.0494 530.0826,-159 530.0826,-159 530.0826,-159 669.946,-159 669.946,-159"/>
<polygon fill="#000000" stroke="#000000" points="669.946,-162.5001 679.946,-159 669.9459,-155.5001 669.946,-162.5001"/>
</g>
<!-- StateBankAccountService -->
<g id="node10" class="node">
<title>StateBankAccountService</title>
<ellipse fill="#fdb462" stroke="#000000" cx="273" cy="-104" rx="112.2975" ry="18"/>
<text text-anchor="middle" x="273" y="-99.8" font-family="Times,serif" font-size="14.00" fill="#000000">StateBankAccountService</text>
</g>
<!-- StateBankAccountService&#45;&gt;BankAccountModule -->
<g id="edge9" class="edge">
<title>StateBankAccountService&#45;&gt;BankAccountModule</title>
<path fill="none" stroke="#000000" d="M273,-122.2667C273,-140.5552 273,-166 273,-166 273,-166 669.9441,-166 669.9441,-166"/>
<polygon fill="#000000" stroke="#000000" points="669.9441,-169.5001 679.9441,-166 669.944,-162.5001 669.9441,-169.5001"/>
</g>
<!-- StateService -->
<g id="node11" class="node">
<title>StateService</title>
<ellipse fill="#fdb462" stroke="#000000" cx="83" cy="-104" rx="59.1026" ry="18"/>
<text text-anchor="middle" x="83" y="-99.8" font-family="Times,serif" font-size="14.00" fill="#000000">StateService</text>
</g>
<!-- StateService&#45;&gt;BankAccountModule -->
<g id="edge10" class="edge">
<title>StateService&#45;&gt;BankAccountModule</title>
<path fill="none" stroke="#000000" d="M83,-122.1289C83,-142.5724 83,-173 83,-173 83,-173 669.9585,-173 669.9585,-173"/>
<polygon fill="#000000" stroke="#000000" points="669.9585,-176.5001 679.9585,-173 669.9584,-169.5001 669.9585,-176.5001"/>
</g>
</g>
</svg>
