<?xml version="1.0" encoding="UTF-8" standalone="no"?>
<!DOCTYPE svg PUBLIC "-//W3C//DTD SVG 1.1//EN"
 "http://www.w3.org/Graphics/SVG/1.1/DTD/svg11.dtd">
<!-- Generated by graphviz version 2.40.1 (20161225.0304)
 -->
<!-- Title: dependencies Pages: 1 -->
<svg width="858pt" height="284pt"
 viewBox="0.00 0.00 858.00 284.00" xmlns="http://www.w3.org/2000/svg" xmlns:xlink="http://www.w3.org/1999/xlink">
<g id="graph0" class="graph" transform="scale(1 1) rotate(0) translate(4 280)">
<title>dependencies</title>
<polygon fill="#ffffff" stroke="transparent" points="-4,4 -4,-280 854,-280 854,4 -4,4"/>
<text text-anchor="start" x="404.0091" y="-42.4" font-family="sans-serif" font-weight="bold" font-size="14.00" fill="#000000">Legend</text>
<polygon fill="#ffffb3" stroke="transparent" points="191,-10 191,-30 211,-30 211,-10 191,-10"/>
<text text-anchor="start" x="214.629" y="-15.4" font-family="sans-serif" font-size="14.00" fill="#000000"> &#160;Declarations</text>
<polygon fill="#8dd3c7" stroke="transparent" points="304,-10 304,-30 324,-30 324,-10 304,-10"/>
<text text-anchor="start" x="327.7251" y="-15.4" font-family="sans-serif" font-size="14.00" fill="#000000"> &#160;Module</text>
<polygon fill="#80b1d3" stroke="transparent" points="390,-10 390,-30 410,-30 410,-10 390,-10"/>
<text text-anchor="start" x="413.7812" y="-15.4" font-family="sans-serif" font-size="14.00" fill="#000000"> &#160;Bootstrap</text>
<polygon fill="#fdb462" stroke="transparent" points="487,-10 487,-30 507,-30 507,-10 487,-10"/>
<text text-anchor="start" x="510.6732" y="-15.4" font-family="sans-serif" font-size="14.00" fill="#000000"> &#160;Providers</text>
<polygon fill="#fb8072" stroke="transparent" points="583,-10 583,-30 603,-30 603,-10 583,-10"/>
<text text-anchor="start" x="606.7258" y="-15.4" font-family="sans-serif" font-size="14.00" fill="#000000"> &#160;Exports</text>
<g id="clust1" class="cluster">
<title>cluster_TransactionModule</title>
<polygon fill="none" stroke="#000000" stroke-dasharray="1,5" points="8,-70 8,-268 842,-268 842,-70 8,-70"/>
</g>
<g id="clust3" class="cluster">
<title>cluster_TransactionModule_imports</title>
<polygon fill="none" stroke="#000000" points="686,-78 686,-130 834,-130 834,-78 686,-78"/>
</g>
<g id="clust4" class="cluster">
<title>cluster_TransactionModule_exports</title>
<polygon fill="none" stroke="#000000" points="207,-208 207,-260 713,-260 713,-208 207,-208"/>
</g>
<g id="clust6" class="cluster">
<title>cluster_TransactionModule_providers</title>
<polygon fill="none" stroke="#000000" points="16,-78 16,-130 678,-130 678,-78 16,-78"/>
</g>
<!-- ManagementModule -->
<g id="node1" class="node">
<title>ManagementModule</title>
<polygon fill="#8dd3c7" stroke="#000000" points="826.1345,-122 823.1345,-126 802.1345,-126 799.1345,-122 693.8655,-122 693.8655,-86 826.1345,-86 826.1345,-122"/>
<text text-anchor="middle" x="760" y="-99.8" font-family="Times,serif" font-size="14.00" fill="#000000">ManagementModule</text>
</g>
<!-- TransactionModule -->
<g id="node2" class="node">
<title>TransactionModule</title>
<polygon fill="#8dd3c7" stroke="#000000" points="508.6331,-187 505.6331,-191 484.6331,-191 481.6331,-187 383.3669,-187 383.3669,-151 508.6331,-151 508.6331,-187"/>
<text text-anchor="middle" x="446" y="-164.8" font-family="Times,serif" font-size="14.00" fill="#000000">TransactionModule</text>
</g>
<!-- ManagementModule&#45;&gt;TransactionModule -->
<g id="edge1" class="edge">
<title>ManagementModule&#45;&gt;TransactionModule</title>
<path fill="none" stroke="#000000" d="M699.2298,-122.0225C699.2298,-139.3734 699.2298,-163 699.2298,-163 699.2298,-163 518.9215,-163 518.9215,-163"/>
<polygon fill="#000000" stroke="#000000" points="518.9215,-159.5001 508.9215,-163 518.9215,-166.5001 518.9215,-159.5001"/>
</g>
<!-- StateTransactionService  -->
<g id="node3" class="node">
<title>StateTransactionService </title>
<polygon fill="#fb8072" stroke="#000000" points="704.554,-252 549.446,-252 549.446,-216 704.554,-216 704.554,-252"/>
<text text-anchor="middle" x="627" y="-229.8" font-family="Times,serif" font-size="14.00" fill="#000000">StateTransactionService </text>
</g>
<!-- TransactionModule&#45;&gt;StateTransactionService  -->
<g id="edge2" class="edge">
<title>TransactionModule&#45;&gt;StateTransactionService </title>
<path fill="none" stroke="#000000" stroke-dasharray="5,2" d="M508.7663,-175C554.8892,-175 609.5535,-175 609.5535,-175 609.5535,-175 609.5535,-205.9775 609.5535,-205.9775"/>
<polygon fill="#000000" stroke="#000000" points="606.0536,-205.9774 609.5535,-215.9775 613.0536,-205.9775 606.0536,-205.9774"/>
</g>
<!-- TransactionInterestService  -->
<g id="node4" class="node">
<title>TransactionInterestService </title>
<polygon fill="#fb8072" stroke="#000000" points="530.5372,-252 361.4628,-252 361.4628,-216 530.5372,-216 530.5372,-252"/>
<text text-anchor="middle" x="446" y="-229.8" font-family="Times,serif" font-size="14.00" fill="#000000">TransactionInterestService </text>
</g>
<!-- TransactionModule&#45;&gt;TransactionInterestService  -->
<g id="edge3" class="edge">
<title>TransactionModule&#45;&gt;TransactionInterestService </title>
<path fill="none" stroke="#000000" stroke-dasharray="5,2" d="M446,-187.1061C446,-187.1061 446,-205.991 446,-205.991"/>
<polygon fill="#000000" stroke="#000000" points="442.5001,-205.9909 446,-215.991 449.5001,-205.991 442.5001,-205.9909"/>
</g>
<!-- TransactionService  -->
<g id="node5" class="node">
<title>TransactionService </title>
<polygon fill="#fb8072" stroke="#000000" points="342.5612,-252 215.4388,-252 215.4388,-216 342.5612,-216 342.5612,-252"/>
<text text-anchor="middle" x="279" y="-229.8" font-family="Times,serif" font-size="14.00" fill="#000000">TransactionService </text>
</g>
<!-- TransactionModule&#45;&gt;TransactionService  -->
<g id="edge4" class="edge">
<title>TransactionModule&#45;&gt;TransactionService </title>
<path fill="none" stroke="#000000" stroke-dasharray="5,2" d="M383.3402,-175C335.9533,-175 279,-175 279,-175 279,-175 279,-205.9775 279,-205.9775"/>
<polygon fill="#000000" stroke="#000000" points="275.5001,-205.9774 279,-215.9775 282.5001,-205.9775 275.5001,-205.9774"/>
</g>
<!-- StateTransactionService -->
<g id="node6" class="node">
<title>StateTransactionService</title>
<ellipse fill="#fdb462" stroke="#000000" cx="565" cy="-104" rx="104.7675" ry="18"/>
<text text-anchor="middle" x="565" y="-99.8" font-family="Times,serif" font-size="14.00" fill="#000000">StateTransactionService</text>
</g>
<!-- StateTransactionService&#45;&gt;TransactionModule -->
<g id="edge5" class="edge">
<title>StateTransactionService&#45;&gt;TransactionModule</title>
<path fill="none" stroke="#000000" d="M484.4663,-115.6207C484.4663,-115.6207 484.4663,-140.8534 484.4663,-140.8534"/>
<polygon fill="#000000" stroke="#000000" points="480.9664,-140.8533 484.4663,-150.8534 487.9664,-140.8534 480.9664,-140.8533"/>
</g>
<!-- TransactionInterestService -->
<g id="node7" class="node">
<title>TransactionInterestService</title>
<ellipse fill="#fdb462" stroke="#000000" cx="328" cy="-104" rx="114.558" ry="18"/>
<text text-anchor="middle" x="328" y="-99.8" font-family="Times,serif" font-size="14.00" fill="#000000">TransactionInterestService</text>
</g>
<!-- TransactionInterestService&#45;&gt;TransactionModule -->
<g id="edge6" class="edge">
<title>TransactionInterestService&#45;&gt;TransactionModule</title>
<path fill="none" stroke="#000000" d="M412.8564,-116.226C412.8564,-116.226 412.8564,-140.683 412.8564,-140.683"/>
<polygon fill="#000000" stroke="#000000" points="409.3565,-140.683 412.8564,-150.683 416.3565,-140.683 409.3565,-140.683"/>
</g>
<!-- TransactionService -->
<g id="node8" class="node">
<title>TransactionService</title>
<ellipse fill="#fdb462" stroke="#000000" cx="110" cy="-104" rx="85.6493" ry="18"/>
<text text-anchor="middle" x="110" y="-99.8" font-family="Times,serif" font-size="14.00" fill="#000000">TransactionService</text>
</g>
<!-- TransactionService&#45;&gt;TransactionModule -->
<g id="edge7" class="edge">
<title>TransactionService&#45;&gt;TransactionModule</title>
<path fill="none" stroke="#000000" d="M110,-122.0225C110,-139.3734 110,-163 110,-163 110,-163 373.1951,-163 373.1951,-163"/>
<polygon fill="#000000" stroke="#000000" points="373.1952,-166.5001 383.1951,-163 373.1951,-159.5001 373.1952,-166.5001"/>
</g>
</g>
</svg>
